<?xml version="1.0" standalone="no"?>
<!DOCTYPE svg PUBLIC "-//W3C//DTD SVG 20010904//EN"
 "http://www.w3.org/TR/2001/REC-SVG-20010904/DTD/svg10.dtd">
<svg version="1.0" xmlns="http://www.w3.org/2000/svg"
 width="1024.000000pt" height="1024.000000pt" viewBox="0 0 1024.000000 1024.000000"
 preserveAspectRatio="xMidYMid meet">

<g transform="translate(0.000000,1024.000000) scale(0.100000,-0.100000)"
fill="#000000" stroke="none">
<path d="M905 10199 c11 -63 55 -188 124 -347 33 -78 61 -145 61 -148 0 -12
131 -378 146 -407 21 -39 42 -56 71 -57 26 0 224 60 553 169 129 43 280 92
335 109 96 29 685 213 754 235 18 6 47 24 63 39 36 34 35 44 -16 181 -19 51
-47 131 -62 179 l-29 88 -1003 0 -1004 0 7 -41z"/>
<path d="M3576 10143 c-4 -54 -11 -145 -16 -203 -22 -257 -23 -290 -6 -290 19
0 21 12 35 165 16 177 31 318 36 333 2 6 10 12 16 12 15 0 7 -100 -25 -330
-14 -98 -20 -172 -15 -181 7 -14 86 -36 94 -27 4 4 53 268 75 407 10 62 25
120 33 130 8 9 17 31 20 49 l7 32 -43 0 c-26 0 -51 -8 -67 -20 -33 -26 -77
-26 -85 0 -4 12 -15 20 -29 20 -23 0 -24 -4 -30 -97z"/>
<path d="M4015 10198 c-4 -24 -19 -115 -35 -203 -16 -88 -36 -212 -45 -275 -9
-63 -23 -156 -31 -205 -9 -50 -14 -104 -12 -120 3 -27 7 -30 41 -33 32 -3 37
-6 32 -22 -5 -15 0 -21 22 -26 15 -3 35 -8 43 -10 29 -10 365 -64 395 -64 17
0 77 -9 135 -20 58 -11 184 -34 280 -51 210 -36 405 -73 520 -99 47 -10 132
-28 190 -40 58 -11 122 -25 142 -31 20 -5 78 -16 130 -25 51 -8 105 -18 120
-21 36 -7 42 9 63 168 22 167 21 174 -31 175 -22 1 -58 4 -80 7 l-39 6 32 -12
c65 -24 67 -30 52 -167 -7 -67 -18 -128 -23 -135 -9 -12 -20 -12 -66 1 -30 8
-80 19 -110 25 -86 15 -239 49 -300 66 -30 8 -80 21 -110 29 -94 22 -192 62
-207 83 -8 12 -27 28 -42 36 -23 11 -30 25 -39 67 -19 98 6 123 115 114 141
-12 328 -38 338 -46 6 -5 10 4 11 23 1 18 13 76 27 129 15 53 35 145 46 205
22 120 46 228 85 377 40 152 66 136 -220 136 -235 0 -245 -1 -239 -19 3 -10
-1 -24 -10 -31 -13 -11 -15 -8 -15 19 l0 31 -579 0 -579 0 -7 -42z m270 -8 c3
-5 1 -10 -4 -10 -6 0 -11 5 -11 10 0 6 2 10 4 10 3 0 8 -4 11 -10z m1125 0 c0
-5 -14 -7 -32 -3 -46 8 -48 13 -5 13 21 0 37 -4 37 -10z m109 -26 c2 -2 2 -7
-2 -10 -10 -10 -77 6 -77 18 0 9 68 3 79 -8z m-329 -70 c0 -8 4 -12 10 -9 6 3
7 -1 4 -10 -10 -24 -29 -12 -32 19 -2 18 0 26 7 21 6 -3 11 -13 11 -21z m208
-16 c22 1 35 -3 39 -14 14 -36 -52 -41 -90 -7 -16 15 -18 15 -30 -1 -12 -16
-14 -16 -25 9 l-12 27 42 -8 c24 -4 58 -7 76 -6z m-518 -43 c0 -8 -2 -15 -4
-15 -2 0 -6 7 -10 15 -3 8 -1 15 4 15 6 0 10 -7 10 -15z m-590 -61 c0 -24 -3
-25 -27 -19 -35 8 -37 11 -30 30 4 8 18 15 32 15 20 0 25 -5 25 -26z m167 -50
c-3 -3 -12 -4 -19 -1 -8 3 -5 6 6 6 11 1 17 -2 13 -5z m56 -11 c-7 -2 -19 -2
-25 0 -7 3 -2 5 12 5 14 0 19 -2 13 -5z m614 -245 c-3 -8 -6 -5 -6 6 -1 11 2
17 5 13 3 -3 4 -12 1 -19z m231 -42 c3 -20 0 -27 -10 -24 -7 3 -14 17 -16 32
-3 20 0 27 10 24 7 -3 14 -17 16 -32z m-840 -358 c3 -13 -3 -18 -21 -18 -26 0
-52 22 -40 34 13 13 58 1 61 -16z"/>
<path d="M6050 10236 c0 -8 51 -13 56 -5 3 5 -9 9 -25 9 -17 0 -31 -2 -31 -4z"/>
<path d="M6775 10214 c50 -14 127 -30 171 -36 71 -9 85 -9 105 5 20 14 20 17
6 23 -9 3 -17 12 -17 20 0 11 -32 14 -177 13 l-178 0 90 -25z"/>
<path d="M8425 10180 c-4 -33 -11 -63 -16 -66 -5 -3 -9 -16 -9 -30 0 -34 14
-23 41 31 23 45 39 58 39 30 0 -18 5 -19 32 -4 14 8 17 13 9 19 -8 4 5 14 33
24 34 13 46 23 46 38 0 24 -21 19 -35 -9 -6 -11 -16 -18 -23 -15 -17 5 -15 22
3 22 8 0 15 5 15 10 0 6 -28 10 -64 10 l-64 0 -7 -60z"/>
<path d="M8938 10233 c7 -3 16 -2 19 1 4 3 -2 6 -13 5 -11 0 -14 -3 -6 -6z"/>
<path d="M8995 10229 c-20 -8 -20 -8 0 -10 46 -4 61 -7 86 -17 14 -5 38 -8 53
-5 19 4 27 2 23 -4 -4 -6 4 -13 18 -15 20 -4 23 -3 14 8 -19 23 8 17 31 -6 11
-11 41 -25 67 -30 27 -6 80 -20 118 -31 39 -11 86 -24 105 -29 48 -13 246 -60
292 -70 l38 -7 24 76 c13 42 27 93 31 114 l7 37 -322 0 c-293 0 -321 -1 -309
-16 11 -14 6 -15 -57 -10 -85 6 -83 6 -59 16 26 11 -132 10 -160 -1z m305 -43
c0 -3 -4 -8 -10 -11 -5 -3 -10 -1 -10 4 0 6 5 11 10 11 6 0 10 -2 10 -4z"/>
<path d="M9283 10018 c-24 -12 -27 -29 -13 -63 7 -17 9 -17 9 -3 1 11 6 15 15
12 8 -3 12 -12 9 -20 -3 -9 1 -14 11 -14 9 0 27 -6 39 -14 12 -8 37 -13 54
-12 39 3 51 -20 33 -65 -14 -32 -31 -37 -50 -14 -15 18 -31 20 -27 3 3 -18
-80 -12 -157 11 -83 25 -166 23 -166 -5 0 -16 31 -34 59 -34 12 0 21 -4 21 -9
0 -5 -19 -7 -42 -5 -24 2 2 -7 57 -21 55 -14 114 -28 130 -33 23 -6 31 -14 33
-36 2 -16 -1 -32 -7 -36 -14 -8 -135 6 -251 29 -25 6 -69 12 -98 15 -46 4 -53
3 -48 -10 5 -12 1 -14 -17 -8 -12 3 -25 12 -29 19 -5 8 -25 11 -55 9 -36 -2
-41 -1 -18 4 34 8 24 19 -20 22 -53 4 -57 1 -36 -21 15 -16 32 -21 72 -21 33
0 47 -3 38 -9 -10 -6 -7 -9 10 -9 24 0 116 -22 261 -62 167 -46 596 -148 621
-148 11 0 19 7 19 16 0 9 8 47 19 83 18 64 50 207 69 303 l9 48 -41 11 c-122
33 -386 90 -435 94 -32 3 -66 0 -78 -7z m-164 -184 c2 -2 2 -7 -2 -10 -3 -3
-16 2 -29 11 l-23 17 25 -7 c14 -4 27 -9 29 -11z"/>
<path d="M8460 9999 c-19 -5 -14 -7 23 -8 26 -1 47 1 47 3 0 8 -46 12 -70 5z"/>
<path d="M570 9844 c-30 -8 -134 -30 -230 -49 -96 -20 -179 -40 -183 -44 -5
-5 1 -53 13 -106 l23 -97 31 6 c17 3 69 10 116 17 47 7 89 15 93 19 5 4 4 24
-2 45 -12 46 -6 63 27 72 17 4 29 1 37 -11 13 -17 40 -22 49 -7 3 5 23 12 43
15 138 23 164 30 158 44 -3 8 -8 25 -11 39 -4 14 -17 36 -29 49 -25 27 -52 29
-135 8z"/>
<path d="M7574 9823 c-4 -16 -24 -95 -45 -178 -57 -228 -65 -275 -48 -286 28
-18 36 -7 48 64 17 102 33 170 43 182 4 5 8 20 8 35 0 14 11 67 24 118 l23 92
-23 0 c-17 0 -25 -7 -30 -27z"/>
<path d="M8586 9745 c4 -9 11 -14 16 -13 15 5 11 23 -6 26 -11 2 -14 -2 -10
-13z"/>
<path d="M8658 9753 c-28 -7 -21 -21 7 -15 14 2 25 8 25 13 0 9 -4 10 -32 2z"/>
<path d="M618 9663 c7 -3 16 -2 19 1 4 3 -2 6 -13 5 -11 0 -14 -3 -6 -6z"/>
<path d="M654 9654 c3 -9 6 -18 6 -21 0 -2 7 2 15 11 20 20 19 26 -6 26 -15 0
-19 -4 -15 -16z"/>
<path d="M700 9661 c0 -11 26 -22 34 -14 3 3 3 10 0 14 -7 12 -34 11 -34 0z"/>
<path d="M520 9640 c0 -11 5 -20 10 -20 6 0 10 9 10 20 0 11 -4 20 -10 20 -5
0 -10 -9 -10 -20z"/>
<path d="M10046 9628 c-36 -127 -36 -135 12 -144 55 -9 145 -30 165 -39 15 -6
17 1 17 79 l0 86 -29 0 c-16 0 -40 4 -53 9 -47 17 -108 22 -112 9z"/>
<path d="M85 9623 c-89 -8 -85 -3 -85 -99 0 -78 2 -85 18 -79 9 4 49 11 87 17
39 5 71 10 71 11 3 3 -24 122 -31 140 -4 9 -10 16 -14 15 -3 -1 -24 -3 -46 -5z"/>
<path d="M637 9590 c-55 -10 -101 -21 -103 -23 -3 -2 0 -16 6 -31 9 -25 13
-26 47 -20 90 15 158 34 161 44 2 5 10 10 18 10 8 0 14 9 14 20 0 24 -11 24
-143 0z"/>
<path d="M380 9549 c-167 -26 -180 -30 -180 -54 0 -40 23 -49 93 -36 181 34
168 29 165 64 -4 36 -7 37 -78 26z"/>
<path d="M775 9530 c-3 -6 -19 -10 -35 -10 -16 0 -31 -4 -34 -9 -3 -4 -27 -11
-54 -15 -64 -8 -96 -30 -82 -57 12 -21 15 -21 183 -3 l67 7 -1 31 c0 17 -3 38
-7 46 -8 18 -29 23 -37 10z"/>
<path d="M405 9449 c-138 -31 -165 -42 -165 -63 0 -42 13 -48 71 -37 110 23
181 40 186 45 3 2 1 17 -4 33 -11 31 -28 36 -88 22z"/>
<path d="M725 9385 c-44 -11 -86 -24 -92 -28 -7 -5 -17 -5 -23 -2 -13 8 -13
-21 0 -46 7 -11 21 -19 37 -19 l26 0 -21 -23 c-39 -41 -29 -57 32 -57 29 0 66
4 82 9 16 5 42 12 57 16 22 4 28 11 25 28 -2 14 -11 23 -25 25 -26 4 -33 42
-8 42 18 0 20 40 3 61 -11 13 -23 12 -93 -6z m51 -90 c-11 -12 -20 -14 -33 -6
-15 8 -16 10 -3 15 53 17 60 15 36 -9z m-66 -5 c-19 -13 -30 -13 -30 0 0 6 10
10 23 10 18 0 19 -2 7 -10z"/>
<path d="M470 9325 c0 -8 -4 -15 -10 -15 -5 0 -10 5 -10 10 0 6 -4 10 -10 10
-5 0 -10 -9 -10 -19 0 -17 5 -19 38 -14 42 6 57 16 48 32 -11 16 -46 13 -46
-4z"/>
<path d="M385 9322 c-11 -2 -25 -11 -32 -19 -6 -8 -16 -12 -21 -9 -18 11 -62
-12 -56 -29 6 -15 47 -12 70 7 6 4 18 6 25 3 21 -7 41 10 37 31 -2 13 -9 18
-23 16z"/>
<path d="M443 9253 c-24 -2 -43 -8 -43 -12 0 -5 -19 -11 -41 -14 -54 -7 -75
-27 -60 -56 14 -26 19 -26 112 -1 41 11 83 20 94 20 32 1 44 13 38 43 -6 29
-3 28 -100 20z"/>
<path d="M800 9188 c-14 -4 -50 -11 -80 -15 -50 -7 -55 -11 -58 -34 -3 -27 -3
-27 45 -18 81 15 94 19 87 30 -4 8 0 8 14 0 35 -19 52 -14 52 17 0 30 -13 34
-60 20z"/>
<path d="M452 9149 c-29 -5 -62 -14 -72 -19 -10 -6 -31 -10 -45 -10 -26 0 -27
-2 -20 -37 3 -21 10 -41 13 -45 7 -6 64 6 190 39 39 10 52 18 52 32 0 53 -13
57 -118 40z"/>
<path d="M790 9094 c-98 -15 -110 -21 -110 -53 0 -47 8 -50 90 -35 110 21 110
21 110 59 0 19 -3 35 -7 37 -5 2 -42 -1 -83 -8z"/>
<path d="M520 9035 c-139 -27 -180 -38 -180 -48 0 -25 24 -87 34 -87 6 0 27 5
46 11 19 6 44 12 55 14 36 5 145 37 145 43 0 15 -24 82 -29 81 -3 -1 -35 -7
-71 -14z"/>
<path d="M795 8974 c-38 -8 -76 -15 -83 -16 -14 -1 -8 -45 8 -62 7 -7 114 6
163 20 22 7 23 59 1 68 -9 3 -16 6 -17 5 -1 0 -33 -7 -72 -15z"/>
<path d="M7305 8960 c-567 -4 -785 -8 -800 -17 -11 -6 -33 -25 -50 -43 l-30
-31 2 -732 2 -732 68 -34 c77 -39 177 -135 213 -203 12 -24 30 -72 39 -108 15
-58 15 -71 3 -115 -13 -46 -15 -48 -29 -30 -13 19 -14 18 -14 -15 0 -79 0
-118 2 -185 1 -44 -2 -70 -10 -73 -6 -2 -11 -9 -11 -16 0 -18 -37 -49 -48 -42
-6 4 -8 -3 -5 -16 4 -19 3 -20 -7 -8 -8 10 -13 11 -16 3 -14 -32 -53 -65 -71
-59 -13 4 -26 -1 -39 -16 -19 -22 -20 -31 -12 -163 4 -77 7 -306 7 -510 -1
-203 2 -379 6 -390 15 -38 47 -75 77 -91 27 -14 152 -16 1192 -14 1291 1 1182
-5 1234 72 l27 42 0 1690 c0 930 -4 1708 -8 1728 -12 57 -50 96 -100 102 -69
9 -789 11 -1622 6z m1525 -199 c36 -68 -34 -110 -76 -46 -12 18 -13 28 -4 44
14 28 65 29 80 2z m-898 -32 c-22 -7 -43 -7 -60 0 -23 8 -17 9 33 9 55 0 57
-1 27 -9z m-99 -6 c-7 -2 -19 -2 -25 0 -7 3 -2 5 12 5 14 0 19 -2 13 -5z m-18
-23 c4 -6 -7 -10 -25 -10 -18 0 -29 4 -25 10 3 6 15 10 25 10 10 0 22 -4 25
-10z m135 -2 c0 -4 -25 -8 -55 -8 -31 0 -55 4 -55 10 0 6 23 10 55 9 30 -1 55
-6 55 -11z m-303 -4 c-3 -3 -12 -4 -19 -1 -8 3 -5 6 6 6 11 1 17 -2 13 -5z
m1217 -220 c14 -6 16 -64 16 -554 0 -355 -4 -551 -10 -555 -5 -3 -515 -6
-1132 -5 -881 0 -1124 3 -1130 13 -4 6 -8 254 -8 549 0 501 1 538 18 547 18
11 2218 16 2246 5z m-1577 -1552 c61 -4 115 -10 119 -14 7 -8 6 -169 -1 -176
-8 -8 -506 21 -511 30 -3 4 -2 47 2 94 l7 87 136 -7 c75 -4 186 -11 248 -14z
m607 -24 c11 -16 16 -46 16 -103 0 -136 17 -125 -195 -125 -101 0 -190 3 -199
6 -13 5 -16 24 -16 109 0 57 3 110 6 119 5 14 32 16 190 16 178 0 183 -1 198
-22z m392 16 c26 -7 33 -58 24 -169 l-5 -70 -182 0 c-100 0 -185 4 -190 8 -4
5 -10 53 -11 106 -5 135 -11 131 186 131 86 0 167 -3 178 -6z m414 -4 c12 -7
15 -31 13 -116 -1 -64 -6 -111 -13 -118 -7 -7 -64 -10 -178 -9 -145 2 -168 5
-179 20 -8 11 -13 52 -13 114 0 83 3 100 18 108 22 13 332 14 352 1z m-1960
-224 c0 -3 -4 -8 -10 -11 -5 -3 -10 -1 -10 4 0 6 5 11 10 11 6 0 10 -2 10 -4z
m660 -46 c12 -8 14 -45 12 -247 -3 -209 -5 -240 -20 -252 -26 -20 -462 -7
-479 16 -17 22 -17 474 0 485 17 11 469 9 487 -2z m498 -121 l-3 -114 -188 0
c-155 0 -190 3 -197 15 -15 23 -12 183 3 203 10 14 37 17 192 19 99 2 184 0
188 -3 4 -3 6 -57 5 -120z m412 6 l0 -115 -179 0 c-136 0 -181 3 -190 13 -12
15 -17 189 -6 206 4 7 70 11 191 11 l184 0 0 -115z m383 103 c14 -10 18 -30
19 -98 0 -47 0 -96 -1 -109 l-1 -24 -177 7 c-148 6 -180 10 -190 23 -14 18
-19 194 -6 206 13 13 338 8 356 -5z m-2148 -148 c3 -5 1 -10 -4 -10 -6 0 -11
5 -11 10 0 6 2 10 4 10 3 0 8 -4 11 -10z m-25 -4 c0 -3 -4 -8 -10 -11 -5 -3
-10 -1 -10 4 0 6 5 11 10 11 6 0 10 -2 10 -4z m1349 -102 l32 -7 -3 -111 -3
-111 -189 -3 c-130 -2 -193 1 -202 9 -17 14 -20 163 -4 203 l10 26 164 0 c90
0 178 -3 195 -6z m445 -10 c8 -20 8 -75 0 -153 l-7 -62 -184 3 c-150 2 -185 6
-193 18 -14 22 -12 184 2 198 8 8 66 12 194 12 157 0 183 -2 188 -16z m371 8
l30 -9 -1 -101 c0 -56 -3 -104 -6 -107 -3 -4 -84 -6 -179 -6 -153 0 -175 2
-186 18 -19 25 -17 177 2 196 12 12 46 15 162 16 82 1 162 -3 178 -7z m-1282
-261 c4 -1 7 -55 7 -121 l0 -120 -238 0 c-176 0 -243 3 -255 13 -15 10 -17 27
-15 117 l3 105 190 5 c165 4 282 5 308 1z m492 -23 c3 -13 5 -66 3 -118 l-3
-95 -200 0 -200 0 -3 95 c-5 154 -25 140 203 140 193 0 195 0 200 -22z m419 6
c8 -21 8 -143 0 -183 l-7 -31 -186 2 -186 3 -3 99 c-1 55 0 106 2 113 4 10 46
13 190 13 158 0 185 -2 190 -16z m399 -66 c3 -46 3 -99 -1 -118 l-8 -35 -174
3 c-211 4 -203 0 -198 122 2 47 7 91 12 98 5 9 55 12 185 12 l178 0 6 -82z
m-817 -189 c19 -16 18 -149 0 -194 l-15 -35 -185 0 c-154 0 -187 3 -200 16
-12 12 -16 37 -16 105 0 78 3 92 22 111 20 20 26 21 201 15 109 -4 185 -11
193 -18z m-482 -11 c3 -13 6 -62 6 -109 0 -66 -4 -90 -15 -99 -12 -10 -66 -11
-248 -6 -128 4 -236 11 -241 17 -10 9 -11 193 -1 209 4 6 106 10 249 10 l244
0 6 -22z m891 -98 l0 -115 -180 4 c-99 2 -184 7 -189 12 -12 10 -21 159 -12
194 l6 25 188 -2 187 -3 0 -115z m405 103 c3 -3 5 -55 5 -116 l0 -112 -180 4
c-99 2 -184 7 -190 13 -12 10 -20 157 -11 192 4 15 15 26 29 28 32 4 341 -3
347 -9z"/>
<path d="M556 8881 c-4 -5 3 -7 14 -4 23 6 26 13 6 13 -8 0 -17 -4 -20 -9z"/>
<path d="M855 8870 c-11 -4 -41 -10 -67 -14 -42 -6 -48 -10 -48 -32 0 -13 5
-24 10 -24 6 0 10 5 10 10 0 6 8 5 20 -2 15 -10 29 -10 67 1 26 8 56 13 66 13
9 0 17 5 17 11 0 13 -20 47 -20 34 0 -4 -8 -4 -17 1 -10 6 -27 6 -38 2z"/>
<path d="M3708 8873 c7 -3 16 -2 19 1 4 3 -2 6 -13 5 -11 0 -14 -3 -6 -6z"/>
<path d="M3741 8865 c3 -3 26 -9 50 -14 24 -5 87 -19 139 -31 196 -46 272 -61
277 -56 3 2 -17 9 -44 15 -26 6 -113 26 -193 44 -152 36 -238 52 -229 42z"/>
<path d="M506 8794 c-50 -13 -94 -28 -99 -33 -5 -5 -6 -19 -2 -31 6 -18 12
-21 48 -17 47 6 163 31 190 42 18 7 21 22 11 49 -8 21 -41 19 -148 -10z"/>
<path d="M830 8772 c-73 -18 -81 -26 -68 -64 10 -29 12 -30 57 -23 25 4 55 9
66 10 11 1 24 3 28 4 5 0 5 6 2 11 -3 6 -2 10 4 10 5 0 11 -6 14 -12 9 -28 19
3 12 39 -4 21 -10 32 -12 26 -3 -7 -9 -13 -14 -13 -6 0 -8 4 -5 9 10 16 -28
18 -84 3z"/>
<path d="M4228 8753 c6 -2 18 -2 25 0 6 3 1 5 -13 5 -14 0 -19 -2 -12 -5z"/>
<path d="M4290 8740 c14 -4 32 -8 40 -9 13 -1 13 0 0 9 -8 5 -26 9 -40 9 l-25
-1 25 -8z"/>
<path d="M590 8713 c-159 -40 -161 -41 -158 -76 3 -33 6 -34 63 -22 23 5 126
24 173 32 33 5 35 10 23 53 -8 30 -25 32 -101 13z"/>
<path d="M4368 8723 c6 -2 18 -2 25 0 6 3 1 5 -13 5 -14 0 -19 -2 -12 -5z"/>
<path d="M647 8588 c-7 -4 -25 -5 -41 -2 -19 4 -26 3 -22 -5 4 -6 0 -11 -8
-11 -9 0 -16 -5 -16 -11 0 -7 8 -9 23 -4 12 3 33 9 47 12 14 2 32 7 40 10 8 3
23 5 33 4 9 -1 17 3 17 9 0 11 -54 10 -73 -2z"/>
<path d="M1036 8568 c3 -18 12 -57 20 -87 7 -30 11 -58 8 -62 -2 -4 -26 -10
-52 -14 -86 -10 -157 -29 -168 -43 -10 -14 -29 -14 -92 1 -12 3 -37 0 -55 -8
-17 -7 -35 -13 -40 -13 -14 -1 -102 -13 -129 -18 -25 -5 -28 -10 -28 -42 0
-20 7 -46 15 -56 8 -11 13 -28 9 -38 -6 -21 -10 -21 81 -7 39 5 88 12 110 15
22 2 72 11 110 18 56 12 171 32 230 42 6 1 25 2 44 3 l34 1 -7 53 c-4 28 -11
66 -17 82 -5 17 -19 68 -32 114 -12 47 -28 86 -35 89 -8 2 -10 -6 -6 -30z"/>
<path d="M898 8564 c-43 -14 -78 -29 -78 -35 0 -6 5 -7 10 -4 6 3 10 -3 10
-14 0 -28 2 -33 19 -53 17 -20 41 -24 41 -8 0 6 12 10 26 10 14 0 23 -4 20 -9
-3 -4 11 -8 32 -7 35 1 37 3 35 31 -5 69 -16 115 -27 115 -6 -1 -46 -12 -88
-26z"/>
<path d="M515 8550 c3 -5 11 -10 16 -10 6 0 7 5 4 10 -3 6 -11 10 -16 10 -6 0
-7 -4 -4 -10z"/>
<path d="M681 8529 c-29 -11 -144 -38 -184 -43 -37 -4 -41 -10 -28 -47 6 -18
11 -43 11 -55 0 -22 11 -30 35 -24 6 2 60 10 120 19 l110 16 3 44 c4 47 -14
101 -32 100 -6 0 -22 -5 -35 -10z"/>
<path d="M305 8450 c-3 -5 -1 -10 4 -10 6 0 11 5 11 10 0 6 -2 10 -4 10 -3 0
-8 -4 -11 -10z"/>
<path d="M2715 8450 c-3 -6 1 -7 9 -4 18 7 21 14 7 14 -6 0 -13 -4 -16 -10z"/>
<path d="M2610 8432 c-53 -8 -45 -24 9 -18 48 5 80 15 55 17 -5 0 -16 2 -24 3
-8 1 -26 0 -40 -2z"/>
<path d="M2547 8413 c-13 -13 -7 -20 18 -20 14 0 25 0 23 1 -2 1 -10 7 -19 14
-9 6 -19 9 -22 5z"/>
<path d="M1705 8353 c4 -32 11 -59 16 -61 21 -8 5 -21 -51 -41 -65 -24 -82
-50 -60 -90 18 -35 162 -463 167 -501 3 -19 11 -42 18 -50 8 -8 47 -114 88
-235 98 -286 191 -543 202 -553 31 -32 -76 350 -183 648 -24 69 -47 141 -49
160 -3 19 -14 43 -24 53 -11 10 -19 25 -19 35 -1 28 -38 132 -66 181 -35 62
-81 189 -85 233 -3 37 14 68 37 68 8 0 19 9 26 20 21 33 52 25 70 -17 23 -55
76 -196 92 -245 44 -139 58 -189 60 -221 1 -20 7 -42 14 -49 7 -7 12 -20 12
-31 0 -26 23 -16 31 14 l7 24 7 -22 c8 -26 16 -28 33 -11 18 18 15 45 -19 138
-44 122 -93 272 -123 371 -28 92 -54 129 -90 129 -19 0 -27 10 -43 53 -17 43
-25 53 -48 55 l-28 4 8 -59z"/>
<path d="M2470 8390 c-8 -5 -10 -10 -5 -10 6 0 17 5 25 10 8 5 11 10 5 10 -5
0 -17 -5 -25 -10z"/>
<path d="M1611 8379 c-21 -8 -23 -13 -17 -50 11 -66 21 -79 51 -66 23 11 25
17 21 50 -5 32 -22 78 -29 76 -1 0 -13 -5 -26 -10z"/>
<path d="M2415 8370 c3 -5 12 -7 20 -3 21 7 19 13 -6 13 -11 0 -18 -4 -14 -10z"/>
<path d="M2240 8335 c-186 -50 -180 -48 -171 -63 5 -9 20 -11 50 -6 31 5 39 9
29 16 -9 7 -7 7 7 2 33 -13 67 -8 114 14 25 12 51 22 58 22 7 0 13 4 13 9 0 5
14 12 30 16 32 7 42 26 13 24 -10 0 -74 -16 -143 -34z"/>
<path d="M825 8194 c-116 -19 -234 -40 -262 -46 -57 -12 -69 -32 -30 -47 27
-11 100 -3 105 10 2 5 16 9 32 9 16 0 30 6 33 13 3 9 7 9 18 1 17 -14 59 -1
60 18 0 8 3 7 7 -3 6 -14 16 -14 92 -2 47 7 108 15 135 18 83 9 110 19 113 43
3 20 -1 22 -45 21 -26 0 -142 -16 -258 -35z"/>
<path d="M8 8163 c7 -3 16 -2 19 1 4 3 -2 6 -13 5 -11 0 -14 -3 -6 -6z"/>
<path d="M9600 7911 c0 -6 -17 -11 -39 -11 -22 0 -51 -4 -66 -10 -22 -8 -24
-13 -15 -29 5 -11 20 -23 32 -27 22 -7 22 -7 3 -14 -11 -4 -32 -5 -47 -3 -25
5 -28 2 -28 -21 0 -25 22 -37 34 -17 3 5 22 12 41 15 27 5 35 12 35 29 1 20 2
20 11 5 12 -22 29 -23 29 -4 0 8 -9 18 -20 21 -46 15 -3 41 46 29 l28 -7 -25
-11 c-23 -10 -23 -10 11 -14 19 -2 39 -7 43 -11 5 -5 26 -4 47 1 36 9 37 11
22 28 -8 11 -19 17 -24 14 -5 -3 -4 -12 2 -19 8 -10 4 -14 -15 -17 -26 -5 -35
6 -12 15 6 3 1 6 -12 6 l-24 1 23 20 c13 11 21 20 19 21 -2 0 -13 2 -24 3 -11
2 -32 7 -47 11 -18 5 -28 3 -28 -4z"/>
<path d="M9426 7871 c-4 -7 -5 -15 -2 -18 9 -9 19 4 14 18 -4 11 -6 11 -12 0z"/>
<path d="M9640 7810 c0 -5 9 -10 21 -10 11 0 17 5 14 10 -3 6 -13 10 -21 10
-8 0 -14 -4 -14 -10z"/>
<path d="M9548 7783 c7 -3 16 -2 19 1 4 3 -2 6 -13 5 -11 0 -14 -3 -6 -6z"/>
<path d="M9625 7780 c3 -5 11 -10 16 -10 6 0 7 5 4 10 -3 6 -11 10 -16 10 -6
0 -7 -4 -4 -10z"/>
<path d="M9970 7775 c0 -8 3 -15 8 -15 4 0 8 -12 8 -27 1 -16 5 -45 9 -66 7
-36 -4 -97 -26 -139 -12 -23 -11 -37 1 -18 16 25 20 6 6 -34 -7 -21 -15 -35
-18 -30 -3 5 -3 3 -1 -4 1 -7 -8 -34 -21 -61 -38 -74 -183 -188 -223 -175 -14
5 -15 4 -4 -4 11 -8 5 -13 -25 -21 -44 -12 -166 -33 -180 -30 -33 6 -21 -5 16
-15 92 -25 223 12 328 91 136 103 203 241 189 391 -8 78 -67 218 -67 157z"/>
<path d="M9448 7753 c7 -3 16 -2 19 1 4 3 -2 6 -13 5 -11 0 -14 -3 -6 -6z"/>
<path d="M9730 7711 c0 -12 5 -21 10 -21 6 0 10 6 10 14 0 8 -4 18 -10 21 -5
3 -10 -3 -10 -14z"/>
<path d="M1973 7579 c3 -31 10 -65 16 -75 18 -33 111 -275 111 -290 0 -8 4
-14 10 -14 18 0 -22 147 -81 299 -16 40 -29 79 -29 85 0 7 -7 21 -16 32 -14
18 -15 15 -11 -37z"/>
<path d="M2688 7573 c7 -3 16 -2 19 1 4 3 -2 6 -13 5 -11 0 -14 -3 -6 -6z"/>
<path d="M9715 7530 c-3 -5 -1 -10 4 -10 6 0 11 5 11 10 0 6 -2 10 -4 10 -3 0
-8 -4 -11 -10z"/>
<path d="M2588 7517 c-16 -6 -28 -14 -28 -19 0 -7 24 -12 43 -9 5 1 5 -3 2
-10 -4 -6 -18 -8 -31 -5 -19 5 -22 3 -17 -10 4 -11 14 -14 34 -10 18 3 34 0
43 -9 19 -19 27 -19 20 0 -4 9 0 15 9 15 9 0 19 -9 22 -20 3 -11 17 -23 31
-26 26 -7 39 -39 31 -79 -2 -14 0 -28 4 -31 5 -3 9 10 10 28 1 31 2 31 12 -12
l12 -45 3 48 c2 26 7 47 12 47 5 0 6 -8 3 -17 -5 -12 -2 -15 9 -10 18 6 33
-29 17 -39 -5 -3 -7 -10 -3 -15 3 -5 0 -8 -8 -7 -9 2 -14 -11 -16 -39 -3 -39
-1 -43 25 -49 45 -10 51 -15 12 -10 -46 5 -74 -10 -36 -19 15 -4 36 -5 47 -2
18 5 18 3 3 -19 -14 -23 -14 -24 5 -24 15 0 21 9 26 35 4 20 4 40 0 46 -3 6
-1 22 6 34 16 29 -1 80 -32 96 -11 6 -17 17 -14 25 3 8 -1 17 -9 20 -8 4 -15
12 -15 20 0 8 -5 14 -11 14 -15 0 -39 26 -32 34 4 3 -1 6 -10 6 -20 0 -22 -11
-5 -28 9 -9 8 -12 -5 -12 -10 0 -20 7 -23 15 -4 8 -10 12 -15 9 -5 -3 -9 6 -9
19 0 16 -12 34 -34 51 -37 28 -47 30 -88 13z"/>
<path d="M1425 7448 c15 -98 93 -326 241 -698 40 -102 86 -223 103 -270 16
-47 59 -161 96 -255 78 -199 104 -275 98 -290 -6 -17 -55 -43 -150 -79 -49
-19 -155 -59 -238 -91 -187 -72 -358 -133 -545 -195 -80 -27 -208 -71 -285
-98 -77 -27 -159 -53 -182 -57 -40 -6 -42 -5 -56 27 -28 64 -88 226 -104 281
-8 24 -23 21 -23 -5 -1 -22 -1 -22 -15 -4 -12 16 -17 17 -30 6 -8 -7 -15 -10
-15 -8 0 3 -18 2 -40 -2 -22 -4 -40 -3 -40 1 0 5 -7 9 -15 9 -8 0 -15 6 -15
14 0 8 -9 18 -20 21 -11 4 -17 11 -14 17 4 6 3 8 -2 5 -6 -3 -16 -2 -23 2 -16
10 -74 168 -73 200 0 15 -3 19 -8 12 -4 -8 -10 3 -14 28 -6 37 -3 44 28 75 25
26 36 32 45 23 8 -8 11 -6 11 10 0 12 4 25 10 28 5 3 10 -2 10 -12 0 -15 2
-16 10 -3 5 8 10 10 10 4 0 -6 11 -16 25 -22 21 -10 27 -9 31 3 4 8 10 12 15
9 5 -3 9 -1 9 4 0 5 -10 14 -22 21 -13 6 -15 9 -6 7 10 -3 18 -1 18 4 0 16
-34 90 -40 88 -3 -2 -52 -23 -108 -47 l-102 -43 0 -110 0 -110 116 -291 c63
-160 136 -345 161 -412 59 -156 73 -175 123 -175 22 0 68 11 103 24 35 13 95
33 133 45 123 36 488 165 739 261 55 21 172 62 260 90 249 82 506 191 527 224
10 15 1 45 -40 146 -45 110 -148 375 -219 560 -30 80 -61 161 -68 180 -199
509 -262 654 -348 807 -50 88 -72 103 -62 41z m50 -1810 c0 -10 6 -23 13 -30
17 -17 15 -45 -4 -52 -28 -11 -44 -7 -38 9 4 8 2 15 -4 15 -14 0 -22 53 -10
68 15 17 43 11 43 -10z m-265 -68 c0 -9 -21 -21 -123 -64 -48 -20 -53 -35 -37
-102 7 -30 10 -57 7 -61 -12 -11 -18 3 -22 47 -3 24 -12 54 -20 67 l-16 23
-39 -20 c-22 -11 -40 -24 -40 -28 0 -11 31 -55 48 -68 15 -11 13 -48 -3 -50
-6 0 -18 -4 -28 -8 -12 -6 -23 -1 -36 15 -22 27 -37 19 -43 -21 -2 -19 -8 -24
-23 -22 -11 2 -23 9 -27 15 -5 7 -8 3 -8 -10 0 -16 -8 -23 -31 -28 -34 -8 -59
12 -36 28 8 6 7 7 -3 4 -8 -2 -14 -11 -14 -20 1 -12 -10 -18 -41 -23 -52 -7
-83 7 -90 44 -3 15 -10 39 -14 55 -7 21 -6 27 5 27 21 0 132 39 204 73 36 17
72 29 82 28 9 -1 19 3 23 9 3 5 14 10 23 10 9 0 30 7 46 15 15 8 38 15 50 15
23 1 153 43 163 54 10 10 43 7 43 -4z m310 -40 c0 -5 -4 -10 -10 -10 -5 0 -10
5 -10 10 0 6 5 10 10 10 6 0 10 -4 10 -10z m-60 -20 c-29 -8 -40 -3 -21 10 8
4 21 5 30 2 12 -5 10 -8 -9 -12z"/>
<path d="M755 5370 c-3 -5 1 -10 10 -10 9 0 13 5 10 10 -3 6 -8 10 -10 10 -2
0 -7 -4 -10 -10z"/>
<path d="M754 5339 c-3 -6 -1 -16 4 -21 13 -13 45 8 36 23 -7 12 -31 11 -40
-2z"/>
<path d="M2551 7435 c1 -19 18 -51 18 -35 0 8 -4 22 -9 30 -5 8 -9 11 -9 5z"/>
<path d="M2585 7430 c3 -5 10 -10 16 -10 5 0 9 5 9 10 0 6 -7 10 -16 10 -8 0
-12 -4 -9 -10z"/>
<path d="M1276 7419 c3 -6 0 -16 -6 -24 -9 -11 -9 -15 -1 -15 6 0 11 -5 11
-11 0 -6 -7 -9 -15 -5 -11 4 -15 -1 -15 -17 -1 -21 -1 -21 -15 -3 -16 22 -28
16 -30 -14 -2 -25 -2 -25 72 1 54 18 60 23 55 42 -2 12 -9 27 -14 33 -11 14
-50 26 -42 13z"/>
<path d="M1219 7413 c-1 -5 -1 -12 0 -17 1 -5 -5 -4 -13 4 -10 7 -16 8 -16 2
0 -18 20 -24 35 -12 8 7 15 16 15 21 0 11 -20 12 -21 2z"/>
<path d="M2510 7400 c0 -19 3 -21 12 -12 9 9 9 15 0 24 -9 9 -12 7 -12 -12z"/>
<path d="M2550 7371 c0 -6 5 -13 10 -16 6 -3 10 1 10 9 0 9 -4 16 -10 16 -5 0
-10 -4 -10 -9z"/>
<path d="M993 7334 c-29 -13 -53 -30 -53 -37 0 -16 15 -38 26 -40 5 -1 8 -5 7
-9 -2 -5 1 -8 7 -8 6 0 10 10 10 23 1 20 2 21 14 5 15 -21 37 -5 29 21 -4 14
-3 14 6 1 10 -13 13 -13 25 3 7 9 16 17 20 17 10 0 7 -28 -4 -33 -6 -3 -5 -4
2 -3 8 2 13 18 13 42 0 34 -3 39 -25 41 -14 1 -49 -9 -77 -23z"/>
<path d="M2562 7320 c0 -14 2 -19 5 -12 2 6 2 18 0 25 -3 6 -5 1 -5 -13z"/>
<path d="M9493 7298 c-2 -5 3 -8 11 -8 9 0 16 -7 16 -16 0 -13 6 -15 28 -9 15
3 41 9 59 12 17 3 34 10 36 17 5 13 -142 16 -150 4z"/>
<path d="M2960 7228 c0 -42 -4 -80 -10 -83 -5 -3 -10 -13 -10 -22 0 -9 -7 -25
-17 -35 -9 -10 -13 -21 -10 -25 12 -11 56 38 68 75 13 40 7 138 -9 154 -9 9
-12 -6 -12 -64z"/>
<path d="M3945 7284 c-184 -15 -529 -61 -562 -74 -21 -9 -23 -16 -23 -97 0
-49 3 -106 7 -127 l6 -39 106 6 c58 3 119 10 135 17 l29 11 -33 29 c-23 21
-29 31 -19 34 32 10 77 18 124 22 82 8 92 12 103 44 6 16 22 35 36 42 15 6 26
17 26 24 0 21 91 16 121 -7 23 -17 23 -17 4 -40 -11 -12 -15 -20 -10 -16 6 3
17 1 25 -4 12 -8 10 -14 -12 -34 -16 -13 -28 -28 -28 -33 0 -5 -10 -14 -22
-21 -19 -9 -7 -10 62 -6 87 6 156 18 168 30 11 11 14 166 5 210 -8 38 -11 40
-48 41 -22 1 -112 -4 -200 -12z m-10 -44 c4 -6 -5 -10 -20 -10 -15 0 -24 4
-20 10 3 6 12 10 20 10 8 0 17 -4 20 -10z m-40 -30 c3 -5 1 -10 -4 -10 -6 0
-11 5 -11 10 0 6 2 10 4 10 3 0 8 -4 11 -10z m242 -32 c-3 -42 -21 -49 -20 -8
1 40 2 40 12 40 6 0 9 -15 8 -32z m-697 -172 c0 -3 -4 -8 -10 -11 -5 -3 -10
-1 -10 4 0 6 5 11 10 11 6 0 10 -2 10 -4z"/>
<path d="M2702 7240 c-13 -28 -21 -56 -18 -63 2 -7 5 -4 5 6 1 20 17 23 24 5
2 -7 2 -1 0 14 -2 15 1 36 7 48 6 12 10 25 8 31 -2 5 -13 -14 -26 -41z"/>
<path d="M6164 7255 c-29 -27 -44 -32 -44 -14 0 5 -5 7 -11 4 -6 -4 -8 -13 -5
-21 4 -9 -3 -18 -18 -24 -13 -5 -27 -14 -31 -20 -3 -5 -11 -8 -16 -5 -10 7
-25 -23 -15 -32 3 -3 15 2 26 12 11 10 20 15 20 11 0 -4 15 2 34 13 18 12 40
21 48 21 8 0 38 12 68 26 40 19 50 28 39 35 -8 5 -22 6 -31 3 -10 -3 -18 -1
-18 5 0 18 -17 13 -46 -14z"/>
<path d="M1040 7259 c0 -5 5 -7 10 -4 6 3 10 8 10 11 0 2 -4 4 -10 4 -5 0 -10
-5 -10 -11z"/>
<path d="M766 7240 c-76 -24 -82 -31 -66 -70 12 -29 14 -30 36 -15 13 8 28 15
34 15 17 0 11 -18 -7 -23 -12 -3 -10 -5 7 -6 15 -1 30 7 38 19 7 11 21 20 31
20 10 0 24 6 30 14 10 12 7 15 -16 19 l-28 4 28 2 c28 1 39 21 11 21 -8 0 -12
5 -9 10 9 14 -21 11 -89 -10z m38 -33 c-21 -12 -38 2 -24 18 9 11 15 12 25 2
11 -10 10 -13 -1 -20z m49 -14 c-7 -2 -19 -2 -25 0 -7 3 -2 5 12 5 14 0 19 -2
13 -5z m-136 -25 c-3 -8 -6 -5 -6 6 -1 11 2 17 5 13 3 -3 4 -12 1 -19z"/>
<path d="M2121 7173 c-1 -12 4 -25 9 -28 12 -7 12 2 0 30 -8 19 -9 19 -9 -2z"/>
<path d="M598 7163 c7 -3 16 -2 19 1 4 3 -2 6 -13 5 -11 0 -14 -3 -6 -6z"/>
<path d="M1310 7140 c0 -5 5 -10 10 -10 6 0 10 5 10 10 0 6 -4 10 -10 10 -5 0
-10 -4 -10 -10z"/>
<path d="M5970 7108 c-5 -13 -17 -33 -26 -45 -9 -13 -12 -23 -6 -23 6 0 14 9
17 20 4 11 17 28 31 36 27 18 31 34 9 34 -9 0 -20 -10 -25 -22z"/>
<path d="M1290 7106 c0 -8 5 -18 10 -21 6 -3 10 3 10 14 0 12 -4 21 -10 21 -5
0 -10 -6 -10 -14z"/>
<path d="M1326 7104 c-4 -9 -4 -19 -1 -22 2 -3 7 3 11 12 4 9 4 19 1 22 -2 3
-7 -3 -11 -12z"/>
<path d="M2136 7105 c4 -8 8 -15 10 -15 2 0 4 7 4 15 0 8 -4 15 -10 15 -5 0
-7 -7 -4 -15z"/>
<path d="M829 7077 c-49 -24 -64 -36 -61 -49 2 -10 5 -18 8 -18 10 0 50 27 79
53 24 23 37 27 63 23 29 -4 32 -3 22 9 -17 21 -36 18 -111 -18z"/>
<path d="M2815 7100 c3 -5 10 -10 16 -10 5 0 9 5 9 10 0 6 -7 10 -16 10 -8 0
-12 -4 -9 -10z"/>
<path d="M880 7070 c0 -5 7 -10 15 -10 8 0 15 5 15 10 0 6 -7 10 -15 10 -8 0
-15 -4 -15 -10z"/>
<path d="M2182 6974 c11 -43 25 -85 31 -91 17 -22 28 -14 14 10 -8 12 -22 49
-32 82 -27 91 -37 90 -13 -1z"/>
<path d="M6730 7020 c0 -13 -5 -18 -15 -14 -11 5 -15 -1 -15 -20 0 -19 5 -26
18 -26 10 0 19 6 19 13 0 7 3 25 7 40 4 16 2 27 -4 27 -5 0 -10 -9 -10 -20z"/>
<path d="M5881 6949 c-6 -18 -11 -58 -11 -90 0 -35 -5 -63 -13 -71 -8 -7 -16
-35 -19 -61 -5 -43 -2 -52 33 -101 32 -44 43 -53 61 -48 17 4 20 2 15 -11 -5
-12 -1 -17 12 -17 19 0 94 -64 85 -73 -3 -3 20 -13 52 -23 50 -16 58 -16 68
-2 11 15 46 26 99 32 38 4 44 14 13 22 -15 3 -32 1 -40 -5 -16 -13 -98 -4
-123 14 -15 11 -15 15 -4 29 12 14 11 16 -8 16 -12 0 -19 5 -16 10 3 6 2 10
-3 10 -5 0 -26 16 -46 35 -21 19 -41 35 -44 35 -8 0 -26 33 -64 115 -17 37
-23 71 -25 128 -1 44 -4 81 -6 84 -3 2 -10 -10 -16 -28z"/>
<path d="M988 6823 c7 -3 16 -2 19 1 4 3 -2 6 -13 5 -11 0 -14 -3 -6 -6z"/>
<path d="M2195 6819 c-35 -16 -80 -32 -90 -33 -19 -2 -15 -33 6 -52 22 -18 22
-18 15 0 -15 41 55 65 85 29 11 -13 9 -19 -15 -40 -18 -15 -35 -22 -47 -18
-19 6 -27 -9 -10 -20 5 -3 12 -19 16 -35 4 -17 11 -30 16 -30 5 0 9 -9 9 -20
0 -12 9 -40 21 -63 11 -23 29 -69 40 -101 11 -33 30 -78 41 -100 19 -37 21
-39 34 -21 15 20 17 90 4 140 -4 17 -8 24 -9 17 -1 -19 -41 -68 -41 -52 0 8
-6 21 -13 29 -13 14 -40 97 -54 161 -3 14 -11 29 -17 33 -7 5 -2 7 10 4 12 -2
28 -1 35 4 11 7 9 9 -6 9 -11 0 -28 6 -37 14 -16 12 -16 14 2 29 19 16 50 14
50 -4 0 -4 -7 -6 -15 -3 -8 4 -15 1 -15 -5 0 -6 9 -11 19 -11 11 0 26 -2 33
-5 20 -8 21 34 2 64 -16 24 -13 32 21 44 14 6 -35 47 -54 46 -9 0 -25 -4 -36
-10z"/>
<path d="M477 6773 c-10 -9 -9 -33 1 -33 4 0 8 9 8 20 0 23 0 22 -9 13z"/>
<path d="M120 6750 c0 -5 5 -10 11 -10 5 0 7 5 4 10 -3 6 -8 10 -11 10 -2 0
-4 -4 -4 -10z"/>
<path d="M942 6708 c-7 -7 -12 -20 -12 -29 0 -10 -5 -19 -12 -21 -9 -3 -9 -6
0 -12 7 -4 12 -2 12 3 0 6 10 11 21 11 18 0 19 2 9 15 -10 12 -10 18 0 30 15
18 -1 20 -18 3z"/>
<path d="M998 6713 c7 -3 16 -2 19 1 4 3 -2 6 -13 5 -11 0 -14 -3 -6 -6z"/>
<path d="M900 6689 c0 -5 5 -7 10 -4 6 3 10 8 10 11 0 2 -4 4 -10 4 -5 0 -10
-5 -10 -11z"/>
<path d="M960 6690 c0 -5 7 -10 15 -10 8 0 15 5 15 10 0 6 -7 10 -15 10 -8 0
-15 -4 -15 -10z"/>
<path d="M2270 6650 c0 -5 5 -10 10 -10 6 0 10 5 10 10 0 6 -4 10 -10 10 -5 0
-10 -4 -10 -10z"/>
<path d="M3450 6620 c-743 -5 -797 -6 -828 -23 -69 -38 -66 71 -57 -1577 4
-817 8 -1541 9 -1610 2 -152 20 -217 71 -256 72 -55 56 -54 994 -53 476 0 952
4 1057 8 177 7 196 9 240 32 29 15 61 42 79 68 l30 43 -4 1596 -3 1597 -25 53
c-27 55 -66 92 -118 112 -38 15 -403 17 -1445 10z m1066 -237 c77 -5 99 -9 74
-14 l-35 -6 43 -8 c30 -5 39 -11 30 -16 -10 -7 -10 -9 0 -9 18 0 15 -55 -6
-73 -10 -9 -47 -20 -82 -25 l-65 -10 85 -3 c52 -1 68 -4 43 -6 -24 -2 -43 -8
-43 -12 0 -12 -244 -23 -273 -12 -23 9 -25 14 -26 99 -2 79 0 91 16 95 29 8
122 7 239 0z m272 -98 c-2 -52 -6 -96 -9 -99 -3 -3 -14 -3 -24 0 -18 5 -20 13
-17 99 3 94 4 95 29 95 l25 0 -4 -95z m-58 -2 c0 -27 -4 -43 -8 -38 -4 6 -19
16 -34 22 -21 9 -28 9 -32 0 -3 -9 -5 -9 -5 0 -1 18 39 52 55 46 8 -3 14 0 14
6 0 6 2 11 5 11 3 0 5 -21 5 -47z m-55 -33 c-3 -5 -12 -10 -18 -10 -7 0 -6 4
3 10 19 12 23 12 15 0z m88 -237 c15 -4 17 -22 17 -209 0 -123 -4 -213 -10
-225 -10 -19 -31 -19 -935 -19 -508 0 -930 3 -939 6 -14 5 -16 35 -16 224 l0
219 43 4 c60 5 1819 6 1840 0z m-980 -718 c-18 -8 -33 -19 -33 -25 0 -18 30
-23 57 -11 29 13 41 8 25 -12 -7 -8 -9 -17 -5 -20 3 -4 0 -7 -8 -8 -8 -1 -3
-4 10 -8 14 -4 26 -12 28 -18 3 -8 -18 -11 -71 -10 -77 1 -93 11 -61 37 8 7
15 19 15 27 0 7 -7 16 -15 19 -37 14 3 43 60 43 l30 0 -32 -14z m440 8 c41 -6
57 -27 38 -46 -9 -9 -14 -8 -22 3 -8 13 -11 13 -20 -3 -7 -12 -17 -15 -34 -11
-16 4 -23 1 -22 -8 1 -30 -4 -48 -13 -48 -5 0 -10 11 -10 25 0 18 -5 25 -20
25 -14 0 -20 7 -20 21 0 14 5 19 14 16 8 -3 16 2 19 14 6 20 25 23 90 12z
m457 -13 c-6 -4 -11 -10 -10 -14 6 -27 -16 -31 -122 -24 -43 3 -42 2 -28 29 8
13 21 19 46 19 21 0 33 -4 29 -10 -3 -6 5 -10 19 -10 17 0 24 4 20 13 -4 10 3
12 27 9 18 -3 26 -8 19 -12z m-1757 0 c16 0 18 -3 9 -12 -7 -7 -12 -28 -12
-47 0 -43 -9 -36 -13 10 -1 19 -7 33 -12 31 -11 -2 -12 -9 -14 -60 -1 -47 -21
-30 -21 18 0 21 -4 42 -10 45 -22 14 -9 27 21 21 17 -3 41 -6 52 -6z m482 -11
c5 -5 -13 -9 -43 -9 -40 0 -52 4 -52 15 0 12 8 14 43 9 23 -4 46 -10 52 -15z
m-126 2 c7 -5 11 -13 8 -17 -3 -5 16 -10 41 -12 46 -3 72 -15 72 -34 0 -5 -8
-7 -19 -3 -13 4 -20 -1 -25 -17 l-7 -23 -16 23 c-11 15 -26 22 -50 22 -32 0
-34 1 -31 35 2 37 5 40 27 26z m-210 -27 c2 -2 0 -14 -6 -27 -6 -12 -14 -30
-17 -39 -5 -17 -35 -26 -37 -10 0 4 -2 21 -5 37 -6 46 2 58 34 50 15 -4 29 -9
31 -11z m4 -193 c14 -11 17 -32 17 -110 0 -137 0 -137 -141 -134 -147 4 -149
5 -149 127 0 96 3 106 35 125 28 16 217 10 238 -8z m415 10 c28 -17 43 -162
23 -214 -14 -37 -67 -51 -174 -44 -60 3 -94 9 -104 19 -11 11 -15 40 -15 104
-1 101 6 131 30 137 31 8 227 7 240 -2z m423 -10 c22 -18 24 -26 24 -120 0
-134 -2 -136 -140 -136 -133 0 -136 2 -142 122 -4 71 -2 96 11 121 l17 32 103
0 c87 0 108 -3 127 -19z m750 -91 c12 0 11 -87 -2 -111 -8 -16 -20 -19 -70
-18 -54 2 -59 4 -59 25 0 12 -6 25 -12 28 -10 5 -10 7 0 12 6 3 12 19 12 35 0
27 3 29 37 29 29 0 34 -3 25 -12 -13 -13 -16 -56 -6 -82 8 -20 53 -21 60 -1 4
8 1 22 -5 29 -8 9 -8 16 -2 20 14 9 2 36 -16 36 -8 0 -11 5 -8 11 4 6 14 8 22
5 8 -3 19 -6 24 -6z m-436 -12 c53 -3 70 -20 52 -50 -10 -15 -12 -15 -22 -1
-9 12 -16 13 -33 4 -18 -10 -23 -8 -33 11 -12 23 -13 23 -26 -9 -17 -43 -30
-42 -42 4 -13 45 -7 56 27 49 15 -3 50 -6 77 -8z m-1309 -378 c6 -40 7 -40 22
-19 l15 22 13 -24 c7 -13 14 -33 14 -44 0 -17 2 -18 11 -5 8 11 9 8 5 -17 -3
-20 -1 -33 7 -36 8 -3 6 -11 -7 -26 -22 -25 -72 -30 -62 -6 8 22 -17 18 -37
-5 -14 -16 -21 -18 -37 -10 -17 9 -19 21 -18 103 0 50 2 95 5 100 2 4 17 7 33
7 27 0 30 -4 36 -40z m884 -45 c0 -18 -7 -41 -16 -49 -20 -20 -58 -21 -74 -1
-10 13 -9 15 11 15 28 0 56 37 40 53 -14 14 -42 0 -39 -19 2 -9 -3 -19 -10
-22 -10 -3 -13 5 -10 29 2 29 8 35 33 40 45 8 65 -6 65 -46z m53 33 c-4 -18
-2 -20 6 -8 14 20 22 9 28 -38 5 -40 -12 -91 -27 -76 -13 14 -41 124 -35 134
12 20 33 10 28 -12z m372 -4 c-17 -16 -31 -22 -37 -16 -6 6 -1 16 13 26 38 26
55 19 24 -10z m437 2 c10 -15 -2 -30 -15 -17 -19 19 -47 13 -47 -10 0 -17 5
-20 33 -17 l32 3 -3 -50 c-3 -56 -20 -75 -64 -75 -53 0 -94 81 -69 137 9 20
14 23 25 14 11 -9 12 -18 3 -40 -5 -15 -7 -40 -3 -54 5 -21 12 -27 35 -27 33
0 56 22 47 45 -4 11 -13 14 -31 9 -24 -6 -25 -5 -25 44 0 31 5 52 13 55 17 7
61 -4 69 -17z m-1255 -12 c-3 -3 -12 -4 -19 -1 -8 3 -5 6 6 6 11 1 17 -2 13
-5z m863 -11 c0 -5 -5 -15 -10 -23 -9 -13 -11 -13 -19 0 -7 10 -6 17 2 22 15
10 27 10 27 1z m-859 -22 c34 -28 16 -55 -38 -57 -22 -1 -54 -9 -71 -18 -51
-26 -57 -16 -18 29 16 18 30 26 40 22 12 -5 20 1 26 18 11 30 30 32 61 6z
m739 -36 c0 -30 -4 -55 -10 -55 -5 0 -10 7 -10 15 0 9 -6 12 -15 9 -12 -5 -15
2 -15 33 0 44 5 53 32 53 15 0 18 -8 18 -55z m47 3 c-3 -8 -6 -5 -6 6 -1 11 2
17 5 13 3 -3 4 -12 1 -19z m155 -186 c17 -17 24 -221 9 -251 -11 -20 -19 -21
-136 -21 -154 0 -155 0 -155 137 0 111 9 140 47 146 58 10 222 2 235 -11z
m410 0 c20 -20 18 -249 -2 -262 -8 -5 -74 -10 -147 -10 -102 0 -135 3 -146 14
-30 30 -33 229 -4 264 15 19 280 13 299 -6z m-1348 -1 c99 -11 109 -25 104
-157 -2 -67 -8 -107 -17 -117 -11 -14 -34 -17 -126 -17 -155 0 -158 3 -163
143 -4 103 -3 106 21 131 29 29 56 31 181 17z m526 -11 c5 -8 10 -67 10 -131
0 -94 -3 -119 -16 -130 -17 -14 -189 -19 -236 -6 -34 9 -38 23 -41 150 -1 75
2 109 12 121 19 22 257 19 271 -4z m-883 4 c30 -8 35 -29 35 -152 -1 -139 1
-137 -147 -137 -80 0 -118 4 -127 13 -9 9 -13 48 -12 134 0 150 -1 148 133
148 53 0 106 -3 118 -6z m1705 -332 c19 -19 19 -669 0 -681 -8 -4 -72 -11
-144 -15 -113 -6 -134 -5 -147 9 -14 14 -16 61 -19 346 -2 182 -1 337 2 346 5
13 28 14 151 11 101 -2 148 -7 157 -16z m-412 -22 c12 -7 15 -35 15 -147 l0
-138 -131 -3 c-113 -2 -133 0 -145 14 -15 18 -21 233 -7 267 6 15 23 17 130
17 68 0 130 -5 138 -10z m-852 -24 c13 -13 18 -41 20 -130 5 -150 9 -146 -153
-146 -157 0 -155 -2 -155 152 0 97 2 110 21 129 20 20 29 21 136 17 89 -4 118
-9 131 -22z m436 2 c12 -17 16 -49 16 -128 0 -149 -1 -150 -138 -150 -153 0
-152 -1 -152 154 0 81 4 126 12 134 8 8 51 12 129 12 110 0 119 -1 133 -22z
m-864 -8 c5 -8 10 -63 10 -121 0 -82 -3 -109 -15 -119 -22 -18 -223 -10 -235
10 -6 8 -10 63 -10 122 0 91 3 109 18 118 27 17 221 9 232 -10z m1259 -336
l31 -6 0 -149 0 -149 -123 0 c-167 0 -161 -6 -165 156 -3 113 -2 129 14 141
19 14 185 18 243 7z m-1261 -30 c21 -14 22 -22 22 -139 0 -116 -1 -125 -21
-136 -33 -17 -234 -8 -254 12 -12 11 -18 45 -22 122 -5 89 -3 110 11 131 16
25 19 26 129 26 86 0 118 -4 135 -16z m434 -2 c19 -20 15 -196 -6 -245 l-16
-39 -119 4 c-81 2 -124 7 -133 16 -9 9 -14 51 -16 131 -5 158 -8 154 154 149
84 -2 127 -7 136 -16z m439 1 c11 -12 13 -46 11 -137 -2 -100 -5 -123 -19
-133 -11 -9 -54 -13 -125 -13 -147 0 -148 1 -148 158 0 78 4 122 12 130 8 8
52 12 134 12 101 0 124 -3 135 -17z"/>
<path d="M4546 4943 c-11 -11 -6 -23 9 -23 8 0 15 4 15 9 0 13 -16 22 -24 14z"/>
<path d="M4551 4874 c0 -11 3 -14 6 -6 3 7 2 16 -1 19 -3 4 -6 -2 -5 -13z"/>
<path d="M229 6558 c-11 -8 -10 -9 4 -4 19 6 24 -10 5 -17 -7 -2 -10 -7 -7
-11 8 -9 60 15 54 24 -8 13 -42 18 -56 8z"/>
<path d="M308 6563 c7 -3 16 -2 19 1 4 3 -2 6 -13 5 -11 0 -14 -3 -6 -6z"/>
<path d="M187 6540 c7 -25 23 -37 23 -17 0 8 -6 20 -14 26 -12 10 -13 8 -9 -9z"/>
<path d="M6375 6542 c-11 -2 -28 -11 -38 -20 -15 -14 -16 -17 -3 -24 10 -6 23
0 41 18 29 29 29 32 0 26z"/>
<path d="M1500 6520 c0 -11 4 -20 9 -20 5 0 7 9 4 20 -3 11 -7 20 -9 20 -2 0
-4 -9 -4 -20z"/>
<path d="M6160 6530 c0 -5 5 -10 11 -10 5 0 7 5 4 10 -3 6 -8 10 -11 10 -2 0
-4 -4 -4 -10z"/>
<path d="M1301 6424 c0 -11 3 -14 6 -6 3 7 2 16 -1 19 -3 4 -6 -2 -5 -13z"/>
<path d="M1540 6413 c0 -20 17 -50 24 -43 2 3 2 17 -1 33 -6 30 -23 37 -23 10z"/>
<path d="M278 6335 c5 -29 8 -30 28 -11 16 17 19 30 4 21 -6 -4 -17 -2 -24 4
-11 9 -12 6 -8 -14z"/>
<path d="M491 6316 c-16 -19 -11 -29 8 -17 7 5 12 14 9 21 -3 9 -8 7 -17 -4z"/>
<path d="M1341 6314 c0 -11 3 -14 6 -6 3 7 2 16 -1 19 -3 4 -6 -2 -5 -13z"/>
<path d="M1590 6285 c0 -8 4 -15 10 -15 5 0 7 7 4 15 -4 8 -8 15 -10 15 -2 0
-4 -7 -4 -15z"/>
<path d="M375 6280 c-3 -5 -15 -10 -27 -10 -14 0 -18 -5 -14 -15 3 -8 1 -15
-4 -15 -6 0 -10 -4 -10 -9 0 -5 11 -4 25 2 14 7 25 17 25 24 0 6 9 9 20 6 14
-4 20 0 20 11 0 18 -25 22 -35 6z"/>
<path d="M307 6253 c-4 -3 -7 -13 -7 -22 1 -13 3 -13 11 2 11 19 8 33 -4 20z"/>
<path d="M1230 6240 c-9 -6 -10 -10 -3 -10 6 0 15 5 18 10 8 12 4 12 -15 0z"/>
<path d="M9970 6173 c0 -9 48 -114 107 -233 59 -118 119 -244 135 -280 l27
-65 1 91 c0 81 -3 99 -29 150 -15 33 -54 112 -85 177 -32 64 -69 131 -83 147
-28 34 -73 42 -73 13z"/>
<path d="M1739 6145 c-3 -2 -22 -5 -43 -7 -36 -2 -37 -3 -32 -32 8 -38 9 -39
40 -25 28 13 33 24 14 32 -8 4 -4 8 10 12 12 4 22 11 22 16 0 10 -4 11 -11 4z"/>
<path d="M241 6094 c0 -11 3 -14 6 -6 3 7 2 16 -1 19 -3 4 -6 -2 -5 -13z"/>
<path d="M80 6060 c0 -11 2 -20 4 -20 2 0 6 9 9 20 3 11 1 20 -4 20 -5 0 -9
-9 -9 -20z"/>
<path d="M9700 6070 c0 -5 7 -10 16 -10 8 0 12 5 9 10 -3 6 -10 10 -16 10 -5
0 -9 -4 -9 -10z"/>
<path d="M1755 6060 c3 -5 8 -10 11 -10 2 0 4 5 4 10 0 6 -5 10 -11 10 -5 0
-7 -4 -4 -10z"/>
<path d="M9760 6053 c0 -9 52 -35 58 -29 2 3 -10 12 -27 21 -17 8 -31 12 -31
8z"/>
<path d="M1700 6017 c0 -14 5 -29 10 -32 7 -4 9 3 6 20 -7 37 -16 44 -16 12z"/>
<path d="M1730 6020 c0 -11 4 -20 9 -20 5 0 7 9 4 20 -3 11 -7 20 -9 20 -2 0
-4 -9 -4 -20z"/>
<path d="M866 6015 c4 -8 7 -15 9 -15 1 0 8 7 15 15 10 13 9 15 -8 15 -15 0
-20 -5 -16 -15z"/>
<path d="M9585 6003 c11 -3 25 -10 30 -15 7 -7 2 -8 -14 -3 -17 5 -22 4 -19
-6 3 -8 20 -17 39 -20 l34 -6 -30 -3 c-27 -3 -26 -3 10 -9 22 -3 52 -2 67 3
24 9 26 12 13 26 -8 9 -15 22 -15 28 0 8 -22 12 -67 11 -38 -1 -59 -3 -48 -6z"/>
<path d="M9855 5993 c67 -76 124 -189 126 -245 0 -18 4 -42 9 -53 8 -18 9 -17
9 7 1 14 7 29 14 32 9 5 9 7 -2 12 -10 5 -11 8 -1 14 26 16 -57 170 -121 224
-35 29 -57 35 -34 9z"/>
<path d="M1862 5976 c-12 -6 -21 -15 -18 -21 2 -5 -12 -10 -31 -11 -19 0 -39
-7 -45 -15 -8 -11 -9 -11 -4 3 6 19 -20 51 -35 43 -5 -4 -9 -13 -9 -22 0 -12
3 -13 14 -4 11 9 15 6 18 -19 3 -21 0 -30 -9 -30 -8 0 -12 -4 -9 -9 6 -9 61 6
129 36 23 10 37 23 37 34 0 24 -10 28 -38 15z m-51 -59 c-13 -13 -26 -3 -16
12 3 6 11 8 17 5 6 -4 6 -10 -1 -17z"/>
<path d="M1578 5973 c7 -3 16 -2 19 1 4 3 -2 6 -13 5 -11 0 -14 -3 -6 -6z"/>
<path d="M1478 5943 c-23 -6 -22 -27 1 -78 10 -22 16 -46 14 -52 -5 -15 16
-17 51 -4 27 11 29 34 3 53 -20 16 -31 68 -14 68 7 0 6 4 -3 10 -16 10 -24 11
-52 3z m9 -35 c-3 -8 -6 -5 -6 6 -1 11 2 17 5 13 3 -3 4 -12 1 -19z"/>
<path d="M1335 5885 c-25 -12 -26 -14 -5 -9 28 7 60 23 45 23 -5 0 -23 -6 -40
-14z"/>
<path d="M1652 5880 c0 -14 2 -19 5 -12 2 6 2 18 0 25 -3 6 -5 1 -5 -13z"/>
<path d="M1347 5863 c-4 -3 -7 -15 -7 -25 0 -10 -7 -18 -16 -18 -10 0 -14 6
-10 15 4 10 -1 15 -14 15 -23 0 -24 -4 -9 -29 8 -12 9 -23 2 -36 -9 -16 -12
-15 -36 10 -15 17 -31 26 -40 22 -9 -3 -18 -1 -20 6 -2 7 -2 1 0 -13 3 -13 13
-30 24 -38 10 -7 19 -19 18 -25 0 -9 -2 -9 -6 1 -11 27 -21 10 -11 -18 9 -27
12 -29 22 -15 6 9 18 15 26 13 9 -2 15 4 14 13 -1 11 7 16 26 15 17 -1 26 -6
23 -13 -4 -9 3 -10 29 -3 18 6 34 10 35 10 2 0 3 10 4 23 0 21 1 21 9 2 16
-37 10 8 -6 52 -16 40 -39 55 -57 36z m36 -55 c-8 -46 -13 -48 -13 -5 0 21 4
37 10 37 5 0 7 -14 3 -32z"/>
<path d="M6043 5805 c0 -38 2 -53 4 -32 2 20 2 52 0 70 -2 17 -4 1 -4 -38z"/>
<path d="M1605 5838 l-20 -21 23 12 c12 6 22 16 22 21 0 13 -2 12 -25 -12z"/>
<path d="M454 5774 c3 -9 6 -21 6 -27 0 -7 4 -7 9 2 10 16 4 41 -11 41 -6 0
-7 -7 -4 -16z"/>
<path d="M9623 5733 c8 -13 57 -23 57 -12 0 5 -6 9 -14 9 -8 0 -22 3 -32 7
-11 4 -15 3 -11 -4z"/>
<path d="M470 5700 c0 -5 4 -10 9 -10 6 0 13 5 16 10 3 6 -1 10 -9 10 -9 0
-16 -4 -16 -10z"/>
<path d="M6031 5694 c0 -11 3 -14 6 -6 3 7 2 16 -1 19 -3 4 -6 -2 -5 -13z"/>
<path d="M480 5666 c0 -16 28 -42 36 -33 7 6 -18 47 -28 47 -5 0 -8 -6 -8 -14z"/>
<path d="M640 5629 c0 -5 5 -7 10 -4 6 3 10 8 10 11 0 2 -4 4 -10 4 -5 0 -10
-5 -10 -11z"/>
<path d="M721 5617 c-13 -21 -12 -21 5 -5 10 10 16 20 13 22 -3 3 -11 -5 -18
-17z"/>
<path d="M586 5621 c-3 -4 -19 -11 -36 -14 -24 -5 -30 -12 -30 -32 0 -47 27
-95 52 -95 41 0 133 29 144 45 9 12 13 13 16 3 3 -8 9 -5 17 9 10 19 9 22 -4
17 -11 -4 -15 0 -15 17 -1 21 -2 22 -11 7 -13 -24 -36 -23 -49 1 -8 16 -6 23
12 35 26 18 17 21 -14 5 -14 -8 -23 -8 -31 0 -13 13 -44 14 -51 2z"/>
<path d="M5941 5495 c-14 -14 -23 -27 -20 -30 7 -6 49 33 49 45 0 13 -1 13
-29 -15z"/>
<path d="M9925 5450 c-3 -5 -1 -10 4 -10 6 0 11 5 11 10 0 6 -2 10 -4 10 -3 0
-8 -4 -11 -10z"/>
<path d="M5890 5440 c-8 -5 -10 -10 -5 -10 6 0 17 5 25 10 8 5 11 10 5 10 -5
0 -17 -5 -25 -10z"/>
<path d="M9856 5395 c-46 -40 -39 -47 10 -10 18 14 37 25 43 25 6 0 11 5 11
10 0 19 -25 10 -64 -25z"/>
<path d="M5510 5210 c23 -7 23 -8 4 -9 -29 -1 -34 -18 -34 -121 0 -76 3 -89
18 -93 9 -3 50 -13 90 -22 79 -19 117 -41 107 -65 -4 -11 -19 -16 -50 -16 -24
0 -42 3 -39 7 3 5 -60 19 -93 20 -5 1 -13 5 -20 10 -8 7 -13 -1 -17 -28 -6
-40 -6 -213 -1 -213 2 0 11 8 21 18 21 21 104 25 104 5 0 -11 4 -11 20 -1 16
10 24 10 40 0 42 -26 67 -12 61 35 -2 17 19 27 32 14 8 -8 16 -6 29 6 24 21
34 10 20 -22 -7 -16 -17 -23 -27 -19 -10 4 -15 0 -15 -15 0 -13 5 -19 14 -15
16 6 30 -11 21 -26 -5 -8 -11 -8 -19 -1 -7 6 -16 8 -19 4 -10 -9 -117 -3 -139
8 -10 5 -18 6 -18 2 0 -4 -15 -8 -32 -7 -25 1 -34 6 -39 25 -6 21 -7 20 -8 -9
-1 -18 -5 -31 -10 -28 -5 3 -11 0 -14 -8 -6 -15 0 -17 246 -42 87 -8 164 -13
171 -11 8 3 12 15 9 31 -5 22 -11 25 -52 28 -60 4 -60 22 0 26 l47 3 12 114
c12 107 12 118 -6 154 -11 23 -24 37 -31 34 -7 -3 -19 0 -27 6 -7 6 -16 7 -21
3 -4 -4 -5 4 -1 18 3 14 9 46 13 72 5 46 5 47 -23 53 -86 16 -177 39 -241 61
-39 13 -80 24 -90 23 -13 -1 -11 -3 7 -9z m131 -440 c21 0 39 5 42 13 2 6 6 0
9 -16 3 -15 1 -30 -3 -33 -5 -3 -9 2 -9 10 0 24 -76 22 -89 -1 -9 -17 -10 -17
-16 0 -10 25 2 54 17 39 7 -7 29 -12 49 -12z m17 -29 c11 -7 11 -9 -2 -14 -9
-4 -23 -4 -32 0 -13 5 -13 7 -2 14 7 5 15 9 18 9 3 0 11 -4 18 -9z"/>
<path d="M824 5161 c-111 -33 -178 -70 -160 -88 11 -12 217 74 231 97 8 13 2
12 -71 -9z"/>
<path d="M7948 5121 c55 -14 51 -22 -21 -45 -10 -3 -15 -10 -12 -16 4 -6 10
-8 15 -5 5 3 27 1 48 -5 51 -13 262 -23 262 -12 0 15 -43 31 -100 37 -49 5
-86 9 -130 15 -35 4 28 17 70 14 37 -2 40 -1 17 6 -15 4 -62 11 -105 14 -52 4
-66 3 -44 -3z m238 -74 c10 -10 -17 -8 -41 3 -17 8 -16 9 7 7 15 -2 30 -6 34
-10z"/>
<path d="M1875 5090 c-33 -10 -197 -66 -365 -125 -168 -59 -357 -124 -420
-144 -63 -21 -168 -57 -232 -80 -98 -34 -121 -39 -137 -30 -16 10 -55 1 -237
-54 -121 -37 -271 -81 -334 -98 -63 -17 -123 -34 -132 -36 -15 -4 -18 -17 -18
-69 0 -57 2 -64 20 -64 11 0 89 22 173 49 425 136 468 146 475 109 2 -11 -8
-20 -35 -28 -45 -15 -65 -30 -39 -30 12 0 16 -5 12 -15 -4 -11 1 -15 18 -15
13 0 43 -7 66 -15 23 -8 46 -13 50 -10 4 3 25 7 45 10 20 2 42 9 49 14 18 15
116 25 116 12 0 -14 -31 -26 -90 -35 -25 -4 -58 -12 -73 -18 l-29 -11 42 -14
c38 -13 45 -13 86 6 45 22 74 27 74 13 0 -4 -15 -13 -32 -20 -78 -32 -119 -55
-128 -73 -6 -10 -21 -19 -34 -19 -13 0 -35 -9 -49 -20 -14 -11 -28 -20 -32
-20 -5 0 -26 -9 -49 -19 -202 -96 -488 -200 -593 -217 l-43 -7 0 -470 0 -471
54 -95 c30 -53 69 -129 86 -170 34 -79 72 -145 90 -156 22 -14 76 -6 150 20
254 91 383 136 610 215 459 158 512 177 750 260 318 111 480 167 573 196 91
29 202 78 211 92 3 6 -5 45 -19 87 -14 42 -41 131 -60 198 -18 67 -51 185 -73
262 -22 77 -56 209 -77 294 -26 107 -47 170 -67 203 -18 28 -45 102 -64 173
-43 158 -99 345 -118 388 -17 41 -51 67 -86 66 -14 0 -52 -9 -85 -19z m95
-272 c7 -24 17 -47 22 -52 16 -20 7 -26 -39 -26 -40 0 -170 -38 -256 -75 -10
-4 -38 -8 -62 -9 -23 0 -42 -3 -40 -6 2 -3 -21 -6 -51 -7 -46 -2 -54 1 -54 16
0 13 21 28 70 50 39 17 76 31 83 31 7 0 18 5 25 12 11 11 253 104 278 107 6 0
17 -18 24 -41z m-323 7 c13 -30 -1 -44 -16 -16 -6 11 -11 24 -11 30 0 19 15
11 27 -14z m-346 -110 c-18 -8 -36 -15 -40 -15 -13 1 45 29 59 29 8 0 0 -6
-19 -14z m-71 -20 c0 -6 -49 -27 -135 -59 -137 -51 -91 -22 85 52 27 11 50 15
50 7z m743 -69 c14 -21 20 -58 10 -65 -5 -3 -10 -41 -11 -83 l-1 -78 29 0 c23
0 30 -4 30 -20 0 -11 -7 -23 -15 -26 -8 -4 -13 -9 -11 -13 3 -4 1 -12 -3 -19
-10 -16 -81 -4 -81 14 0 10 -13 14 -40 14 -36 0 -40 3 -40 25 0 16 -6 25 -15
25 -11 0 -15 -11 -15 -40 0 -29 4 -40 15 -40 12 0 15 -14 15 -65 0 -36 -4 -65
-9 -65 -5 0 -18 11 -29 25 -11 14 -25 25 -31 25 -6 0 -11 17 -11 40 0 29 -4
40 -15 40 -11 0 -15 11 -15 40 0 28 4 40 14 40 9 0 15 14 18 40 l4 40 -39 0
c-39 0 -79 26 -60 38 5 4 13 19 17 35 4 19 13 27 29 27 12 0 28 4 36 9 10 6
19 3 31 -11 14 -18 17 -19 29 -4 11 13 11 16 0 16 -18 0 32 46 57 53 28 7 98
-4 107 -17z m49 -133 c7 -9 7 -13 0 -13 -6 0 -13 -8 -15 -17 -3 -10 -5 5 -5
32 0 28 3 41 5 30 3 -11 10 -26 15 -32z m-1267 17 c-3 -5 -15 -10 -26 -10 -11
0 -17 5 -14 10 3 6 15 10 26 10 11 0 17 -4 14 -10z m-105 -30 c-8 -5 -19 -10
-25 -10 -5 0 -3 5 5 10 8 5 20 10 25 10 6 0 3 -5 -5 -10z m254 -159 c16 -25
-82 -68 -116 -50 -16 9 -21 6 -31 -20 -14 -39 -34 -40 -35 -2 -1 26 3 29 39
35 21 3 39 11 39 16 0 6 18 10 41 10 24 0 38 4 34 10 -3 6 1 10 9 10 8 0 17
-4 20 -9z m-84 -77 c0 -2 -9 -4 -21 -4 -11 0 -18 4 -14 10 5 8 35 3 35 -6z
m-107 -1 c-7 -2 -19 -2 -25 0 -7 3 -2 5 12 5 14 0 19 -2 13 -5z m-73 -43 c0
-5 -2 -10 -4 -10 -3 0 -8 5 -11 10 -3 6 -1 10 4 10 6 0 11 -4 11 -10z m690
-160 c0 -22 -4 -40 -10 -40 -5 0 -10 18 -10 40 0 22 5 40 10 40 6 0 10 -18 10
-40z m190 0 c0 -29 -4 -40 -15 -40 -11 0 -15 11 -15 40 0 29 4 40 15 40 11 0
15 -11 15 -40z"/>
<path d="M1700 4510 c0 -5 9 -10 20 -10 11 0 20 5 20 10 0 6 -9 10 -20 10 -11
0 -20 -4 -20 -10z"/>
<path d="M8173 5093 c9 -2 25 -2 35 0 9 3 1 5 -18 5 -19 0 -27 -2 -17 -5z"/>
<path d="M8500 5060 c0 -5 5 -10 10 -10 6 0 10 5 10 10 0 6 -4 10 -10 10 -5 0
-10 -4 -10 -10z"/>
<path d="M8277 5046 c-4 -10 -5 -21 -2 -24 9 -9 17 6 13 25 -3 17 -4 17 -11
-1z"/>
<path d="M8627 5016 c-6 -15 -16 -17 -74 -12 -79 7 -57 -8 25 -17 54 -6 70 3
60 35 -3 8 -7 6 -11 -6z"/>
<path d="M7894 4996 c-10 -25 0 -49 21 -53 38 -7 260 -20 267 -16 4 2 18 -1
30 -7 21 -10 21 -10 6 3 -22 18 -23 27 -1 27 9 0 13 3 10 7 -6 5 -121 22 -265
38 -24 3 -48 7 -53 11 -5 3 -12 -2 -15 -10z"/>
<path d="M10217 4966 c-29 -22 -78 -136 -84 -193 l-6 -53 29 9 c16 5 41 12 57
15 21 5 27 12 27 34 0 16 -8 32 -19 39 -21 13 -18 47 6 71 10 11 20 93 11 92
-2 0 -11 -7 -21 -14z"/>
<path d="M7904 4896 c11 -9 29 -16 40 -15 17 1 16 2 -6 9 -14 4 -32 11 -40 15
-7 3 -4 -1 6 -9z"/>
<path d="M8340 4896 c0 -8 4 -17 9 -20 5 -4 7 3 4 14 -6 23 -13 26 -13 6z"/>
<path d="M8370 4895 c0 -8 5 -15 10 -15 6 0 10 7 10 15 0 8 -4 15 -10 15 -5 0
-10 -7 -10 -15z"/>
<path d="M8400 4894 c0 -15 26 -19 34 -5 3 5 -3 11 -14 14 -13 3 -20 0 -20 -9z"/>
<path d="M8457 4896 c-8 -20 19 -33 58 -29 17 2 43 3 58 3 22 0 28 4 25 17 -5
25 -132 32 -141 9z"/>
<path d="M8013 4883 c9 -2 25 -2 35 0 9 3 1 5 -18 5 -19 0 -27 -2 -17 -5z"/>
<path d="M8173 4873 c15 -2 37 -2 50 0 12 2 0 4 -28 4 -27 0 -38 -2 -22 -4z"/>
<path d="M8188 4853 c12 -2 30 -2 40 0 9 3 -1 5 -23 4 -22 0 -30 -2 -17 -4z"/>
<path d="M8440 4822 c0 -11 108 -32 127 -25 7 3 13 0 13 -6 0 -6 5 -11 10 -11
6 0 10 6 10 14 0 9 -15 16 -40 20 -22 3 -58 9 -80 12 -24 3 -40 2 -40 -4z"/>
<path d="M8630 4790 c8 -5 20 -10 25 -10 6 0 3 5 -5 10 -8 5 -19 10 -25 10 -5
0 -3 -5 5 -10z"/>
<path d="M8706 4775 c4 -8 7 -15 9 -15 2 0 5 7 9 15 3 9 0 15 -9 15 -9 0 -12
-6 -9 -15z"/>
<path d="M10220 4560 c-9 -6 -10 -10 -3 -10 6 0 15 5 18 10 8 12 4 12 -15 0z"/>
<path d="M507 4475 c-14 -14 -14 -18 1 -45 9 -16 24 -30 33 -30 19 0 40 38 35
65 -4 25 -48 32 -69 10z"/>
<path d="M10007 4406 c-70 -50 -211 -163 -266 -213 -14 -12 -49 -41 -78 -65
-107 -85 -213 -180 -213 -190 0 -5 -5 -6 -12 -2 -7 4 -8 3 -4 -4 9 -14 36 -16
36 -2 0 5 7 7 15 4 13 -5 13 -8 0 -21 -8 -8 -20 -24 -26 -35 -6 -11 -13 -17
-16 -14 -9 9 -31 -27 -26 -41 7 -18 23 -16 23 2 0 8 7 15 15 15 8 0 15 5 15
11 0 5 5 7 11 4 6 -4 13 2 16 14 3 12 9 21 14 21 5 0 9 7 9 16 0 8 4 13 10 9
5 -3 33 17 62 45 29 27 61 52 71 56 9 3 17 12 17 20 0 8 5 14 11 14 6 0 29 16
52 35 29 25 50 35 75 35 25 0 35 5 39 20 4 13 14 20 32 20 24 1 25 2 8 14 -16
12 -16 15 -1 27 13 10 17 10 25 -2 5 -8 9 -19 9 -24 0 -18 73 -44 93 -34 10 6
17 6 17 0 0 -5 -6 -11 -12 -14 -10 -3 -10 -9 0 -27 12 -20 12 -22 -3 -16 -11
4 -26 -4 -44 -22 -30 -30 -46 -62 -31 -62 18 0 55 44 52 62 -4 20 3 23 21 8 7
-6 19 -16 28 -23 17 -13 168 -379 180 -437 3 -19 7 115 8 298 l1 333 -22 -7
-23 -6 23 19 c21 19 31 72 15 74 -31 3 -50 7 -65 14 -11 4 -18 3 -18 -4 0 -6
-11 -11 -24 -11 -14 0 -31 -7 -40 -15 -18 -19 -90 -21 -84 -2 3 6 17 13 33 15
21 3 25 6 15 12 -12 7 -10 14 9 34 13 14 28 23 33 20 4 -3 11 2 14 10 3 9 12
16 20 16 17 0 17 5 4 31 -17 30 -42 23 -123 -35z m-17 -125 c0 -5 -7 -11 -14
-14 -10 -4 -13 -1 -9 9 6 15 23 19 23 5z m-43 -37 c-3 -3 -12 -4 -19 -1 -8 3
-5 6 6 6 11 1 17 -2 13 -5z m209 -36 c4 4 4 1 0 -5 -4 -7 -14 -13 -22 -13 -8
0 -14 -4 -14 -10 0 -5 -7 -10 -15 -10 -8 0 -15 3 -15 8 0 4 -20 6 -45 4 -36
-3 -45 -1 -45 12 0 12 10 16 40 16 22 0 40 5 40 10 0 6 14 4 34 -4 19 -8 38
-11 42 -8z m-63 -55 c-7 -2 -21 -2 -30 0 -10 3 -4 5 12 5 17 0 24 -2 18 -5z
m-523 -144 c-6 -11 -18 -23 -26 -26 -9 -3 -20 -15 -25 -27 -7 -18 -8 -17 -6 9
1 18 7 29 14 28 7 -2 18 6 25 17 17 26 32 26 18 -1z"/>
<path d="M5692 4213 c2 -22 8 -28 28 -28 16 0 26 6 28 19 4 21 -13 36 -41 36
-14 0 -18 -6 -15 -27z"/>
<path d="M5558 4097 c-24 -96 -30 -155 -18 -162 21 -13 75 189 58 219 -16 28
-22 18 -40 -57z"/>
<path d="M5677 4082 c-10 -10 -17 -30 -17 -43 0 -14 -7 -34 -15 -47 -9 -12
-15 -27 -13 -34 1 -7 -6 -30 -16 -51 -13 -27 -17 -49 -12 -77 4 -27 -2 -76
-19 -149 -25 -109 -30 -139 -20 -129 6 5 65 221 85 308 7 30 21 75 30 100 21
55 35 140 22 140 -5 0 -16 -8 -25 -18z"/>
<path d="M7660 4079 c0 -5 5 -7 10 -4 6 3 10 8 10 11 0 2 -4 4 -10 4 -5 0 -10
-5 -10 -11z"/>
<path d="M7943 4053 c15 -2 39 -2 55 0 15 2 2 4 -28 4 -30 0 -43 -2 -27 -4z"/>
<path d="M9900 4051 c0 -5 7 -11 15 -15 9 -3 15 0 15 9 0 8 -7 15 -15 15 -8 0
-15 -4 -15 -9z"/>
<path d="M8198 4032 c-4 -12 1 -18 13 -19 11 -1 16 3 13 12 -3 7 3 15 13 18
12 3 10 5 -8 6 -18 1 -28 -5 -31 -17z"/>
<path d="M8186 3940 c-4 -36 -6 -92 -4 -125 l4 -60 2 71 c1 38 6 74 10 80 4 5
5 29 2 54 l-6 45 -8 -65z"/>
<path d="M9900 3980 c0 -5 6 -10 14 -10 8 0 18 5 21 10 3 6 -3 10 -14 10 -12
0 -21 -4 -21 -10z"/>
<path d="M9388 3900 c-16 -14 -28 -31 -28 -38 0 -6 -6 -9 -13 -6 -8 3 -14 -2
-14 -11 0 -19 26 -20 33 0 4 8 11 15 16 15 6 0 21 11 33 25 34 35 9 49 -27 15z"/>
<path d="M5956 3820 c-9 -40 -14 -76 -11 -80 3 -4 26 -13 52 -19 27 -7 86 -24
132 -38 69 -21 85 -23 92 -12 13 20 31 89 33 123 1 29 -1 30 -94 58 -52 15
-116 30 -141 34 l-46 6 -17 -72z"/>
<path d="M9305 3810 c-3 -5 -2 -10 4 -10 5 0 13 5 16 10 3 6 2 10 -4 10 -5 0
-13 -4 -16 -10z"/>
<path d="M8206 3795 c4 -8 8 -15 10 -15 2 0 4 7 4 15 0 8 -4 15 -10 15 -5 0
-7 -7 -4 -15z"/>
<path d="M9467 3794 c3 -8 -1 -14 -11 -14 -9 0 -16 -4 -16 -10 0 -17 25 -11
37 9 10 15 9 20 -2 25 -9 3 -12 0 -8 -10z"/>
<path d="M6277 3737 c-28 -89 -27 -92 56 -116 96 -29 159 -52 154 -58 -3 -2
-57 12 -120 30 -85 26 -119 32 -125 23 -13 -15 -34 -115 -27 -127 3 -5 45 -20
93 -34 48 -15 104 -33 124 -40 20 -8 39 -11 42 -7 7 11 25 83 30 122 3 19 12
69 21 110 8 41 15 78 15 81 0 16 -166 69 -217 69 -27 0 -31 -5 -46 -53z"/>
<path d="M7640 3716 c0 -17 5 -25 18 -24 9 0 55 -2 102 -6 80 -6 83 -6 53 8
-18 8 -40 15 -50 16 -10 0 -37 1 -60 2 -29 1 -43 6 -43 15 0 7 -4 13 -10 13
-5 0 -10 -11 -10 -24z"/>
<path d="M8177 3713 c-3 -16 -1 -32 4 -37 5 -6 9 4 9 27 0 44 -6 48 -13 10z"/>
<path d="M5905 3655 c-10 -36 -16 -68 -13 -71 13 -12 272 -84 279 -77 12 13
39 127 31 134 -9 9 -246 79 -266 79 -9 0 -20 -24 -31 -65z"/>
<path d="M6571 3683 c-6 -21 -11 -58 -13 -83 l-3 -44 135 -43 c74 -24 137 -39
141 -35 13 14 41 154 33 162 -8 7 -260 80 -277 80 -3 0 -11 -17 -16 -37z"/>
<path d="M9535 3690 c-10 -11 -24 -20 -32 -20 -7 0 -13 -4 -13 -10 0 -5 -6
-10 -14 -10 -7 0 -19 -7 -26 -15 -18 -21 -77 -19 -116 6 -41 25 -44 13 -6 -24
34 -32 62 -34 116 -7 45 22 138 100 120 100 -6 0 -19 -9 -29 -20z"/>
<path d="M7898 3673 c7 -3 16 -2 19 1 4 3 -2 6 -13 5 -11 0 -14 -3 -6 -6z"/>
<path d="M6902 3607 c-6 -6 -16 -40 -23 -74 -12 -59 -12 -64 7 -77 21 -16 169
-63 224 -72 l36 -6 18 72 c23 89 23 90 -104 128 -136 42 -146 43 -158 29z"/>
<path d="M5861 3538 c-4 -13 -11 -40 -15 -60 -5 -30 -3 -39 11 -46 40 -21 266
-83 273 -75 14 14 38 110 31 121 -6 11 -246 82 -276 82 -8 0 -19 -10 -24 -22z"/>
<path d="M6536 3518 c-32 -109 -31 -132 6 -141 13 -2 69 -19 125 -36 56 -17
107 -31 112 -31 11 0 42 133 33 141 -10 10 -235 79 -255 79 -10 0 -19 -6 -21
-12z"/>
<path d="M5541 3474 c0 -11 3 -14 6 -6 3 7 2 16 -1 19 -3 4 -6 -2 -5 -13z"/>
<path d="M6181 3417 c-21 -85 -23 -82 99 -121 143 -47 156 -47 169 2 23 89 27
83 -84 120 -55 18 -116 35 -136 38 -36 6 -36 6 -48 -39z"/>
<path d="M6845 3429 c-8 -23 -24 -103 -25 -120 0 -16 48 -35 203 -78 75 -20
77 -20 95 45 21 74 19 79 -50 99 -84 23 -179 52 -200 60 -11 4 -20 2 -23 -6z"/>
<path d="M5800 3372 c-7 -20 -10 -50 -8 -66 3 -27 10 -32 84 -57 45 -15 111
-34 147 -42 l65 -15 17 54 c28 90 31 88 -160 139 -127 33 -132 33 -145 -13z"/>
<path d="M6489 3343 c-6 -16 -11 -45 -12 -66 l-2 -39 106 -33 c98 -30 157 -54
135 -55 -5 0 -63 16 -129 36 l-120 36 -19 -24 -18 -23 0 27 c0 25 -6 29 -109
62 -61 20 -125 37 -143 38 -31 3 -33 1 -46 -49 -8 -28 -12 -58 -9 -66 5 -13
234 -87 270 -87 11 0 20 10 24 30 10 50 24 46 21 -6 l-3 -47 110 -33 c61 -18
123 -34 139 -36 29 -3 30 -2 42 62 7 36 17 79 24 95 21 54 28 114 15 125 -10
8 -243 80 -260 80 -3 0 -10 -12 -16 -27z"/>
<path d="M6801 3226 c-23 -93 -26 -89 117 -135 70 -23 130 -41 133 -41 8 0 43
139 37 145 -4 5 -257 75 -269 75 -3 0 -12 -20 -18 -44z"/>
<path d="M6761 3089 c-15 -44 -14 -94 3 -108 24 -20 239 -70 253 -59 13 10 34
98 27 110 -3 4 -31 15 -62 24 -31 9 -89 27 -129 40 -39 13 -74 24 -76 24 -3 0
-10 -14 -16 -31z"/>
<path d="M3859 3013 c-1 -8 -3 -40 -9 -201 -1 -40 -1 -74 1 -76 2 -2 48 -13
102 -23 76 -15 97 -17 93 -6 -3 7 -1 13 4 13 5 0 6 25 3 55 -5 46 -3 56 12 61
9 4 70 1 134 -6 64 -7 125 -13 136 -12 11 1 23 -4 27 -11 6 -9 10 -9 16 -1 4
7 16 13 27 15 22 5 39 63 25 90 -10 18 -2 59 11 59 5 0 9 8 9 19 0 14 -10 20
-37 25 -54 8 -553 7 -554 -1z m532 -78 c5 -4 -7 -22 -27 -41 -31 -29 -44 -34
-83 -34 -25 0 -54 7 -64 14 -16 13 -16 14 8 20 18 5 25 13 25 31 0 25 1 25 66
20 36 -2 70 -7 75 -10z m-361 -44 c0 -16 -27 -31 -44 -25 -15 6 -14 8 6 19 28
16 38 18 38 6z m130 5 c0 -9 -39 -13 -51 -5 -10 6 -4 9 19 9 17 0 32 -2 32 -4z"/>
<path d="M7457 2758 c-20 -42 -36 -159 -44 -315 -5 -107 -4 -123 9 -123 22 0
33 67 47 295 5 77 12 148 16 158 13 31 -12 18 -28 -15z"/>
<path d="M4345 2760 c3 -5 -1 -10 -9 -10 -9 0 -16 -8 -16 -17 0 -11 -3 -14 -8
-7 -14 21 -44 25 -63 9 -16 -15 -18 -15 -24 4 -9 30 -43 27 -51 -4 -3 -14 -12
-25 -20 -25 -17 0 -18 -16 -1 -24 13 -6 -11 -2 -53 9 -23 6 -23 5 5 -14 17
-12 34 -21 38 -21 4 0 18 -9 30 -21 29 -28 75 -47 270 -115 89 -30 169 -59
177 -64 9 -4 31 -11 50 -15 19 -4 45 -13 57 -21 20 -13 22 -11 33 22 13 37 2
64 -26 64 -8 0 -22 4 -32 9 -9 6 -30 13 -46 16 -23 5 -27 8 -15 16 11 7 8 9
-11 10 -23 0 -23 1 -5 9 15 6 8 9 -29 11 -68 5 -72 26 -7 35 41 5 51 10 51 25
0 11 -7 19 -16 19 -18 0 -36 17 -49 45 -8 17 -9 16 -13 -12 -4 -36 -13 -41
-32 -18 -7 9 -32 20 -56 26 -24 6 -44 15 -44 20 0 5 -7 9 -15 9 -18 0 -20 20
-2 21 20 1 -26 18 -51 18 -13 1 -20 -3 -17 -9z"/>
<path d="M4568 2763 c7 -3 16 -2 19 1 4 3 -2 6 -13 5 -11 0 -14 -3 -6 -6z"/>
<path d="M4685 2740 c3 -5 13 -10 21 -10 8 0 14 5 14 10 0 6 -9 10 -21 10 -11
0 -17 -4 -14 -10z"/>
<path d="M5860 2638 c14 -6 37 -16 51 -24 14 -7 29 -11 33 -7 3 3 16 1 29 -5
19 -10 157 -42 180 -42 5 0 6 4 3 9 -7 11 34 2 52 -12 6 -5 12 -20 12 -34 0
-24 -1 -24 -66 -19 -59 5 -65 4 -60 -12 5 -15 5 -15 -6 -1 -9 11 -25 15 -53
12 -22 -3 -35 -1 -28 4 6 4 -47 8 -118 8 -90 0 -129 -3 -129 -11 0 -7 16 -15
35 -18 20 -4 33 -11 30 -17 -4 -5 -1 -9 6 -9 7 0 10 -3 7 -6 -6 -6 -150 20
-210 38 -21 6 -36 13 -33 16 9 9 -17 32 -36 32 -11 0 -19 5 -19 10 0 6 -5 10
-11 10 -5 0 -7 -5 -3 -11 4 -7 -2 -7 -16 1 -15 8 -43 10 -77 7 -29 -3 -53 -2
-53 2 0 6 -60 7 -113 2 -14 -2 -35 -64 -39 -115 -3 -45 -1 -49 22 -51 50 -6
243 -49 550 -121 173 -41 407 -95 520 -119 113 -25 232 -51 265 -59 82 -20
309 -73 369 -86 28 -6 56 -19 63 -29 7 -10 22 -21 33 -24 18 -5 20 -2 14 16
-6 20 -5 20 10 8 18 -15 18 -57 1 -54 -6 1 -8 -18 -6 -44 2 -33 6 -42 13 -32
7 11 9 11 6 1 -2 -8 -7 -13 -11 -13 -4 1 -14 1 -23 1 -14 0 -15 8 -11 48 5 35
4 40 -2 17 -14 -47 -21 -145 -10 -145 5 0 9 13 9 30 0 33 20 37 32 8 6 -14 12
-16 30 -9 13 5 22 14 21 20 -2 7 13 11 36 11 43 0 58 13 61 50 4 41 1 50 -15
50 -8 0 -15 4 -15 9 0 5 -11 12 -25 15 -25 7 -26 7 -19 80 6 68 5 74 -17 95
-12 11 -37 26 -54 32 -31 12 -32 13 -27 63 2 28 8 59 13 68 5 9 9 29 8 45 0
27 -1 27 -9 6 -5 -13 -12 -45 -16 -71 -3 -27 -13 -58 -23 -69 l-16 -21 -205
49 c-113 27 -212 49 -221 49 -9 0 -19 6 -22 14 -3 7 -16 16 -29 18 -13 3 -32
9 -42 13 -15 6 -17 5 -11 -5 6 -10 3 -12 -16 -6 -13 4 -41 10 -61 13 -21 3
-38 9 -38 14 0 4 -18 7 -40 7 -23 0 -44 2 -47 6 -4 3 17 6 45 6 29 0 52 -4 52
-10 0 -5 7 -10 15 -10 8 0 15 5 15 12 0 6 9 3 20 -7 16 -14 22 -15 34 -5 9 6
14 17 13 23 -3 18 140 22 161 5 12 -10 16 -10 19 0 3 6 11 12 18 12 20 0 28
19 15 35 -6 8 -9 18 -6 23 7 11 -23 54 -34 47 -4 -3 -13 2 -20 10 -10 12 -10
15 0 15 8 0 10 3 7 6 -4 4 -13 1 -22 -6 -9 -8 -24 -10 -42 -4 l-28 7 30 8 c22
6 16 7 -21 3 -28 -2 -62 0 -75 6 -22 9 -21 9 9 6 17 -2 30 -1 27 4 -10 16 -80
17 -93 1 -11 -14 -12 -14 -10 4 3 17 -3 20 -42 22 -25 2 -61 7 -80 13 -80 21
-215 42 -247 37 -20 -4 -31 -2 -28 4 6 9 -22 14 -59 10 -11 -1 -22 2 -25 7 -3
5 -24 11 -46 15 -34 5 -36 4 -15 -5z m80 -208 l25 -8 -25 0 c-14 0 -34 3 -45
8 l-20 9 20 -1 c11 0 31 -4 45 -8z"/>
<path d="M1265 2603 c-77 -19 -294 -96 -415 -148 -80 -35 -203 -82 -275 -105
-72 -23 -170 -57 -220 -75 -84 -31 -259 -85 -277 -85 -4 0 -8 5 -8 11 0 5 4 7
10 4 5 -3 17 -2 26 3 14 8 12 10 -10 14 -15 3 -29 1 -32 -3 -7 -12 -44 -11
-44 1 0 6 5 10 12 10 6 0 9 2 6 5 -3 3 -12 3 -19 0 -11 -4 -15 -31 -17 -114
-2 -93 0 -110 14 -115 15 -6 16 -8 0 -24 -12 -14 -16 -39 -16 -101 l0 -83 32
19 c33 19 42 32 75 108 22 49 88 100 154 119 56 17 65 14 234 -64 79 -36 122
-45 141 -29 8 7 35 43 59 81 36 55 50 68 70 68 28 0 79 -24 147 -68 69 -45
107 -57 185 -56 65 1 81 6 163 48 96 49 130 56 150 31 17 -20 69 -19 77 1 3 9
1 24 -5 33 -7 9 -15 23 -18 31 -13 34 -22 45 -38 42 -16 -3 -134 71 -179 112
-42 39 -36 56 14 45 22 -5 58 -18 79 -29 65 -33 66 -32 73 81 6 110 12 122 59
112 23 -5 28 -2 28 15 0 29 -24 44 -74 46 -36 2 -50 9 -74 34 -29 31 -44 35
-87 25z m-501 -321 c6 -10 -64 -122 -76 -122 -5 0 -1 17 7 37 16 38 10 52 -23
53 -8 0 -12 6 -10 12 7 21 91 37 102 20z m101 -91 c6 -26 4 -32 -6 -29 -8 3
-15 22 -17 44 -4 46 12 36 23 -15z m302 -14 c29 -18 70 -42 93 -52 22 -10 39
-23 37 -29 -2 -6 -26 -22 -52 -36 -72 -36 -201 -41 -274 -10 -81 35 -106 83
-48 95 17 4 47 16 66 28 31 19 77 34 111 36 9 1 39 -14 67 -32z m-715 -27 c6
0 8 -3 5 -6 -10 -11 -38 17 -30 30 5 7 9 5 11 -6 2 -10 8 -18 14 -18z m115
-54 c18 -7 36 -16 40 -21 15 -15 -52 6 -82 27 -16 11 -21 17 -10 13 11 -4 35
-13 52 -19z"/>
<path d="M9602 2368 c-2 -62 -4 -126 -5 -143 -2 -27 1 -30 28 -30 27 0 30 4
37 40 4 22 7 70 7 108 1 62 -1 70 -31 103 l-33 35 -3 -113z"/>
<path d="M6716 2405 c2 -11 4 -23 4 -26 0 -3 14 -6 30 -6 37 0 35 21 -3 25
-14 2 -28 9 -30 15 -2 7 -3 3 -1 -8z"/>
<path d="M6738 2423 c7 -3 16 -2 19 1 4 3 -2 6 -13 5 -11 0 -14 -3 -6 -6z"/>
<path d="M10202 2300 c-44 -56 -133 -195 -138 -217 -10 -38 5 -60 86 -122 43
-34 81 -61 84 -61 3 0 5 97 6 215 0 118 -3 215 -7 214 -5 0 -18 -13 -31 -29z
m-6 -271 c9 -15 -23 -10 -35 5 -10 12 -8 13 9 9 11 -3 23 -9 26 -14z"/>
<path d="M392 1902 c-38 -37 -48 -79 -28 -126 8 -20 19 -36 24 -36 5 0 21 24
36 54 22 42 26 62 21 90 -10 49 -19 52 -53 18z"/>
<path d="M9790 1890 c0 -6 7 -10 15 -10 8 0 15 2 15 4 0 2 -7 6 -15 10 -8 3
-15 1 -15 -4z"/>
<path d="M9240 1875 c-8 -9 -8 -15 -2 -15 12 0 26 19 19 26 -2 2 -10 -2 -17
-11z"/>
<path d="M9840 1860 c0 -5 5 -10 11 -10 5 0 7 5 4 10 -3 6 -8 10 -11 10 -2 0
-4 -4 -4 -10z"/>
<path d="M9871 1808 c16 -18 29 -36 29 -40 0 -5 5 -8 10 -8 18 0 10 29 -15 55
-39 38 -60 32 -24 -7z"/>
<path d="M6996 1763 c-6 -14 -5 -15 5 -6 7 7 10 15 7 18 -3 3 -9 -2 -12 -12z"/>
<path d="M9116 1754 c-10 -25 1 -29 14 -5 6 12 7 21 1 21 -5 0 -12 -7 -15 -16z"/>
<path d="M440 1739 c-7 -11 -10 -23 -7 -25 2 -2 9 7 15 21 14 30 7 33 -8 4z"/>
<path d="M7046 1718 c-11 -91 -19 -118 -31 -118 -9 0 -16 -20 -20 -55 -4 -32
-12 -55 -19 -55 -7 0 -19 -29 -27 -67 -7 -38 -15 -60 -17 -49 -2 10 1 37 7 60
11 39 19 82 26 137 2 14 -1 32 -6 40 -6 9 -9 -3 -9 -38 0 -29 -3 -53 -8 -53
-11 0 -44 -196 -37 -222 6 -23 6 -23 -11 -3 -16 20 -16 19 -10 -7 4 -16 3 -28
-2 -28 -4 0 -13 -27 -19 -59 -6 -33 -23 -85 -37 -116 l-26 -57 -42 6 c-24 4
-61 11 -83 16 -22 5 -107 23 -190 40 -82 17 -170 35 -195 40 -25 5 -99 21
-165 35 -66 14 -158 35 -205 46 -47 11 -103 24 -125 29 -151 34 -187 41 -245
50 -166 26 -441 84 -505 106 -36 12 -41 12 -53 -4 -7 -9 -12 -35 -10 -57 5
-69 44 -86 348 -156 283 -65 603 -135 785 -173 94 -19 258 -54 365 -76 258
-55 337 -67 358 -54 35 22 67 118 162 489 17 66 36 136 41 155 15 51 31 123
32 140 2 47 -4 100 -12 100 -5 0 -11 -19 -15 -42z"/>
<path d="M7086 1743 c-6 -14 -5 -15 5 -6 7 7 10 15 7 18 -3 3 -9 -2 -12 -12z"/>
<path d="M9930 1742 c0 -11 9 -27 20 -37 24 -22 25 -14 5 25 -18 34 -25 38
-25 12z"/>
<path d="M6993 1727 c4 -10 7 -25 7 -33 0 -8 7 -14 15 -14 20 0 19 7 -7 38
-13 17 -19 20 -15 9z"/>
<path d="M9080 1687 c-31 -23 -44 -77 -42 -174 1 -98 15 -167 34 -179 8 -5 9
0 4 17 -4 13 -10 69 -13 124 -4 84 -1 109 16 159 12 33 20 60 19 62 -2 1 -10
-3 -18 -9z"/>
<path d="M1005 1542 c-3 -3 -5 -47 -5 -99 l0 -93 58 -1 c193 -2 830 -3 1410
-1 l672 2 0 89 c0 55 -4 92 -11 97 -13 8 -2116 14 -2124 6z m1725 -104 c0 -5
0 -15 0 -23 0 -11 -10 -16 -37 -15 -21 0 -49 0 -63 0 -14 0 -31 8 -38 17 -13
18 -42 27 -42 12 0 -5 -5 -9 -11 -9 -8 0 -8 4 1 14 18 23 191 26 190 4z"/>
<path d="M8696 1375 c-8 -31 -76 -175 -92 -195 -26 -31 -36 -176 -24 -330 6
-80 10 -230 8 -335 l-3 -190 -660 -3 c-548 -2 -664 0 -680 12 -16 11 -18 26
-18 92 1 53 -1 71 -7 54 -8 -24 -8 -24 -9 -2 -1 12 -5 22 -10 22 -5 0 -7 -9
-4 -20 4 -15 0 -20 -16 -20 -11 0 -21 -5 -21 -12 0 -6 -3 -9 -6 -5 -7 7 13
100 32 144 8 17 14 33 14 36 0 3 5 18 12 34 13 33 17 73 7 73 -8 0 -98 -143
-139 -220 -14 -25 -30 -52 -36 -60 -32 -42 -104 -191 -104 -216 1 -28 1 -28
15 -10 13 18 15 18 15 2 0 -9 6 -16 13 -14 8 2 53 -32 100 -75 52 -48 110 -90
148 -108 l62 -29 181 2 181 3 -40 18 c-22 10 -53 24 -70 32 -16 7 -60 27 -97
44 -37 17 -71 31 -76 31 -4 0 -35 14 -67 30 -32 17 -65 30 -72 30 -7 0 -13 7
-13 15 0 20 19 19 27 -1 3 -8 12 -13 19 -10 12 4 55 -11 191 -70 17 -8 36 -14
41 -14 6 0 43 -15 84 -34 40 -18 92 -37 116 -41 26 -4 42 -12 42 -21 0 -11 22
-14 113 -14 l113 0 12 33 c18 50 15 101 -8 127 -11 13 -20 29 -20 36 0 15 -56
45 -73 38 -9 -3 -13 6 -12 26 0 35 7 38 85 41 91 3 100 1 100 -20 0 -14 22
-31 83 -62 145 -75 187 -95 329 -157 27 -12 49 -29 53 -41 6 -19 14 -21 84
-21 l78 0 12 43 c7 23 16 47 21 52 4 6 10 24 14 40 4 17 13 44 21 60 7 17 26
57 41 90 15 33 33 72 41 88 7 15 9 27 4 27 -5 0 -11 -9 -14 -19 -3 -14 -11
-18 -26 -14 -16 4 -20 10 -15 26 15 47 31 77 37 70 4 -3 7 5 7 18 0 14 6 33
13 44 8 11 20 41 27 67 8 26 18 44 24 41 5 -3 6 -1 2 5 -4 7 0 24 8 39 21 38
60 126 60 138 1 6 7 14 14 18 6 4 12 17 12 27 0 13 7 20 20 20 19 0 20 -2 5
-30 -8 -16 -15 -38 -15 -49 0 -11 -4 -23 -10 -26 -5 -3 -10 -17 -10 -31 0 -13
-6 -24 -13 -24 -8 0 -19 -23 -26 -52 -8 -29 -18 -59 -23 -65 -6 -7 -8 -21 -6
-31 3 -10 -1 -27 -8 -37 -8 -10 -14 -28 -14 -39 0 -12 14 7 33 44 17 36 37 70
43 75 12 11 74 112 74 121 0 3 32 58 70 121 39 64 70 121 70 128 0 7 -23 32
-51 56 -74 62 -147 153 -159 200 -9 33 -21 46 -66 75 -57 37 -121 66 -165 77
-23 6 -28 3 -33 -18z m97 -150 c11 -15 13 -25 6 -25 -7 0 -6 -9 5 -25 9 -14
12 -25 7 -25 -5 0 -11 5 -13 11 -2 7 -17 8 -41 4 -27 -5 -37 -12 -37 -26 0
-34 -25 -99 -37 -99 -8 0 -13 14 -13 40 0 30 5 42 21 51 16 8 20 18 17 40 -3
18 1 30 9 34 9 3 12 12 8 25 -10 31 45 27 68 -5z m220 -320 c-3 -9 -8 -14 -10
-11 -3 3 -2 9 2 15 9 16 15 13 8 -4z m-1871 -575 c-4 -56 -24 -66 -56 -31 -15
16 -16 23 -5 43 7 13 19 28 27 34 9 7 12 16 7 24 -5 9 -4 11 3 6 7 -4 12 -1
13 6 1 7 4 3 7 -10 4 -13 5 -45 4 -72z m1619 -37 c-9 -15 -10 -12 -10 17 0 29
1 32 10 18 7 -12 7 -24 0 -35z m-1281 -12 c0 -5 -7 -12 -16 -15 -22 -9 -24 -8
-24 9 0 8 9 15 20 15 11 0 20 -4 20 -9z m1248 -72 c-3 -8 -7 -3 -11 10 -4 17
-3 21 5 13 5 -5 8 -16 6 -23z m-57 -52 c-10 -9 -11 -8 -5 6 3 10 9 15 12 12 3
-3 0 -11 -7 -18z"/>
<path d="M9853 1268 c-10 -13 -25 -24 -33 -26 -8 -2 -24 -12 -35 -22 -11 -10
-36 -21 -55 -25 -19 -4 -39 -11 -45 -15 -5 -4 -22 -10 -37 -14 -37 -9 -36 -26
2 -26 17 0 30 5 30 11 0 6 7 8 17 5 9 -4 32 4 54 19 21 14 41 25 43 25 6 0 58
50 75 73 20 25 6 21 -16 -5z"/>
<path d="M7394 1071 c-2 -2 -4 -35 -4 -72 l0 -67 61 -4 c33 -1 93 -1 132 2
l72 5 -3 53 c-2 28 1 52 6 52 16 0 9 30 -8 35 -19 6 -249 2 -256 -4z"/>
<path d="M7680 1061 c0 -11 81 -19 138 -13 76 7 44 22 -48 22 -49 0 -90 -4
-90 -9z"/>
<path d="M3925 1010 c-55 -28 -116 -57 -135 -65 -19 -8 -62 -30 -96 -49 -68
-38 -480 -245 -534 -269 -19 -8 -50 -20 -67 -27 -62 -24 -124 -70 -135 -100
-6 -19 -17 -30 -28 -30 -11 0 -25 -8 -32 -18 -7 -9 -25 -25 -41 -35 -18 -12
-31 -32 -39 -60 l-11 -43 -61 1 c-123 1 -194 -12 -234 -43 -20 -16 -59 -41
-87 -56 -27 -15 -65 -36 -84 -48 -18 -12 -59 -27 -90 -35 -73 -18 -321 -29
-330 -15 -4 6 -61 12 -145 13 -109 2 -140 -1 -146 -12 -5 -7 -12 -10 -15 -7
-11 11 -25 160 -20 209 7 77 1 87 -53 82 -26 -2 -57 -9 -69 -15 -31 -15 -71
-2 -75 25 -2 17 -8 21 -28 19 -14 -2 -27 -6 -30 -8 -2 -3 -5 -41 -7 -86 -3
-84 -7 -98 -22 -82 -7 7 -20 343 -21 527 l0 27 -139 0 c-77 0 -142 -4 -145 -9
-4 -5 -9 -103 -12 -218 -7 -211 11 -447 38 -516 13 -32 25 -33 166 -13 117 18
374 33 693 41 252 7 296 0 192 -30 -32 -9 -76 -27 -98 -38 l-40 -22 244 -3
c242 -2 244 -2 285 22 78 45 139 76 144 72 4 -5 -4 -31 -23 -79 -7 -16 4 -17
176 -15 l183 3 17 45 c9 25 33 99 53 165 31 105 41 124 74 154 28 25 485 261
506 261 13 0 146 -286 146 -314 0 -8 -12 -21 -27 -28 -55 -28 -170 -93 -266
-150 -55 -32 -103 -58 -108 -58 -5 0 -9 -3 -9 -7 0 -18 -92 -42 -180 -47 -52
-4 -108 -10 -125 -15 -18 -6 288 -10 798 -10 l828 -1 -17 32 c-9 18 -46 85
-82 148 -36 63 -99 176 -141 250 -42 74 -101 184 -130 244 -58 118 -120 221
-128 213 -5 -6 102 -225 118 -241 14 -16 10 -40 -9 -56 -61 -50 -238 -161
-367 -229 -88 -47 -89 -47 -121 25 -7 18 -38 73 -69 123 -91 150 -104 128 152
263 120 64 232 124 249 134 l31 18 -39 68 c-30 52 -45 68 -61 68 -12 -1 -67
-23 -122 -50z m-7 -62 c-4 -12 -63 -46 -80 -48 -15 0 -8 20 12 40 22 22 74 28
68 8z m-1213 -868 c-3 -5 -11 -10 -16 -10 -6 0 -7 5 -4 10 3 6 11 10 16 10 6
0 7 -4 4 -10z"/>
<path d="M5040 942 c-214 -119 -394 -228 -416 -253 -16 -18 -16 -19 0 -19 10
0 30 8 44 19 15 10 44 28 65 40 74 42 103 59 152 89 163 100 302 180 328 189
16 5 25 33 10 33 -5 0 -87 -44 -183 -98z"/>
<path d="M5197 955 c-15 -8 -40 -23 -54 -35 -14 -11 -32 -20 -40 -20 -7 0 -16
-7 -19 -15 -4 -8 -14 -15 -24 -15 -10 0 -20 -4 -22 -8 -1 -5 -32 -24 -68 -44
-133 -72 -161 -88 -232 -135 -48 -32 -67 -49 -55 -51 9 -2 30 6 46 17 16 12
32 21 35 21 3 0 35 20 70 45 36 25 69 45 74 45 5 0 31 12 57 28 26 15 67 38
90 52 24 14 53 35 64 47 12 12 41 31 66 42 25 11 45 25 45 30 0 14 1 14 -33
-4z"/>
<path d="M1010 904 c0 -7 -3 -19 -6 -28 -5 -13 7 -15 85 -15 50 0 91 5 91 10
0 9 -20 13 -52 10 -10 -1 -18 2 -18 8 0 10 -55 30 -82 28 -10 0 -18 -6 -18
-13z"/>
<path d="M7404 891 c4 -6 4 -11 -1 -11 -10 0 -1 -256 9 -266 9 -8 107 -7 186
2 33 4 52 11 52 20 0 17 -23 31 -28 16 -2 -7 -13 -12 -25 -11 -12 0 -16 3 -9
6 21 8 13 33 -10 33 -13 0 -30 4 -38 10 -11 7 -9 11 14 20 16 6 38 12 50 14
27 4 28 38 1 42 -11 2 -33 5 -50 8 -16 3 -36 2 -44 -3 -19 -12 -63 8 -59 28 4
18 22 21 116 22 35 1 62 6 62 11 0 6 6 5 15 -2 13 -11 15 -8 15 19 0 17 -5 32
-12 32 -7 1 -47 3 -88 4 -41 1 -95 5 -119 9 -31 6 -42 5 -37 -3z m26 -95 c0
-3 -4 -8 -10 -11 -5 -3 -10 -1 -10 4 0 6 5 11 10 11 6 0 10 -2 10 -4z m-3 -98
c-3 -8 -6 -5 -6 6 -1 11 2 17 5 13 3 -3 4 -12 1 -19z m56 -5 c-7 -2 -19 -2
-25 0 -7 3 -2 5 12 5 14 0 19 -2 13 -5z"/>
<path d="M5235 869 c-22 -10 -44 -20 -50 -23 -6 -3 -3 -9 5 -16 12 -9 11 -10
-7 -5 -22 6 -71 -17 -128 -61 -18 -13 -38 -24 -46 -24 -8 0 -25 -9 -39 -20
-14 -11 -33 -20 -43 -20 -10 0 -25 -7 -34 -16 -9 -8 -22 -13 -29 -10 -8 3 -25
-5 -38 -17 -13 -13 -37 -29 -53 -37 -36 -18 -63 -41 -63 -52 0 -5 5 -6 10 -3
6 3 10 0 10 -8 0 -11 80 -127 120 -174 6 -7 26 -40 46 -73 19 -33 39 -60 44
-60 5 0 16 13 25 28 21 35 53 57 185 124 100 51 108 53 180 52 60 -1 85 -6
128 -28 43 -22 53 -24 58 -12 6 17 -21 63 -53 89 -13 10 -23 26 -23 36 0 9 -9
34 -20 56 -14 28 -20 33 -20 19 0 -36 -12 -34 -31 4 -19 37 -25 58 -11 34 6
-8 9 -2 9 17 0 27 -2 29 -14 13 -13 -16 -14 -15 -10 6 3 12 1 20 -4 16 -5 -3
-9 5 -9 17 0 12 -8 28 -17 36 -17 13 -16 14 5 8 28 -8 28 6 0 65 -12 25 -20
48 -20 53 3 12 -20 7 -63 -14z m-65 -69 c0 -5 -4 -10 -10 -10 -5 0 -10 5 -10
10 0 6 5 10 10 10 6 0 10 -4 10 -10z m-77 -47 c-7 -2 -19 -2 -25 0 -7 3 -2 5
12 5 14 0 19 -2 13 -5z m28 -27 c55 -1 62 -14 24 -44 -21 -17 -30 -18 -55 -9
-17 6 -30 20 -32 32 -2 13 -9 19 -22 17 -15 -3 -16 -1 -5 11 10 11 18 12 27 4
7 -6 36 -11 63 -11z m-76 -77 c-4 -5 -13 -9 -22 -9 -13 0 -13 3 -3 15 13 15
35 11 25 -6z"/>
<path d="M1218 863 c12 -2 32 -2 45 0 12 2 2 4 -23 4 -25 0 -35 -2 -22 -4z"/>
<path d="M1332 780 c0 -19 2 -27 5 -17 2 9 2 25 0 35 -3 9 -5 1 -5 -18z"/>
<path d="M1341 568 c1 -35 4 -53 6 -41 4 19 8 20 35 12 19 -5 38 -4 50 2 11 6
29 9 39 6 10 -3 22 -1 25 5 4 7 -14 8 -54 3 -40 -4 -62 -3 -67 4 -3 6 -12 8
-18 5 -9 -5 -9 -4 0 6 6 7 26 16 45 21 32 8 32 8 -10 6 -30 -2 -41 1 -38 10 3
7 1 15 -4 18 -6 4 -9 -19 -9 -57z"/>
<path d="M1370 620 c0 -5 7 -10 15 -10 8 0 15 5 15 10 0 6 -7 10 -15 10 -8 0
-15 -4 -15 -10z"/>
<path d="M1440 605 c0 -10 10 -15 33 -14 17 0 26 3 19 6 -6 2 -10 9 -6 14 3 5
-6 9 -20 9 -16 0 -26 -6 -26 -15z"/>
<path d="M1535 610 c3 -5 12 -7 20 -3 21 7 19 13 -6 13 -11 0 -18 -4 -14 -10z"/>
<path d="M1640 609 c0 -5 5 -7 10 -4 6 3 10 8 10 11 0 2 -4 4 -10 4 -5 0 -10
-5 -10 -11z"/>
<path d="M7221 574 c0 -11 3 -14 6 -6 3 7 2 16 -1 19 -3 4 -6 -2 -5 -13z"/>
<path d="M7430 558 c-8 -21 -9 -22 -10 -3 -2 17 -3 16 -9 -5 -8 -25 -3 -55 7
-46 3 3 11 1 18 -5 16 -13 216 -1 208 12 -3 5 4 9 15 9 12 0 21 5 21 10 0 6
-15 10 -32 10 -23 0 -29 3 -19 9 8 6 -7 8 -43 8 -31 -1 -61 4 -68 11 -7 7 -27
12 -45 12 -26 0 -36 -5 -43 -22z"/>
<path d="M1526 551 c-3 -5 0 -14 8 -20 10 -9 15 -8 19 3 9 22 -15 37 -27 17z"/>
<path d="M1463 523 c9 -2 23 -2 30 0 6 3 -1 5 -18 5 -16 0 -22 -2 -12 -5z"/>
<path d="M1373 513 c9 -2 23 -2 30 0 6 3 -1 5 -18 5 -16 0 -22 -2 -12 -5z"/>
<path d="M8850 466 c0 -8 -3 -23 -6 -33 -5 -12 -4 -15 3 -8 16 15 26 55 14 55
-6 0 -11 -6 -11 -14z"/>
<path d="M1426 461 c-20 -8 -20 -8 0 -12 10 -3 30 -2 44 2 14 4 20 7 13 8 -6
1 -17 3 -25 5 -7 3 -22 1 -32 -3z"/>
<path d="M1638 436 c-7 -63 -4 -65 68 -51 35 6 68 15 72 19 4 4 -5 5 -20 1
-15 -4 -35 -2 -45 4 -10 6 -12 11 -5 11 18 0 15 20 -4 20 -8 0 -13 4 -10 9 3
5 -7 11 -23 13 -26 4 -30 1 -33 -26z"/>
<path d="M1661 204 c0 -11 3 -14 6 -6 3 7 2 16 -1 19 -3 4 -6 -2 -5 -13z"/>
<path d="M6200 134 c1 -38 4 -84 7 -102 l5 -32 194 0 c126 0 195 4 199 11 4 6
-2 13 -14 16 -11 3 -18 9 -15 14 3 5 -13 9 -35 9 -40 0 -53 12 -29 26 9 6 5
11 -12 16 -19 5 -15 7 18 5 42 -3 55 6 26 17 -9 3 -26 6 -39 6 -14 0 -25 7
-28 20 -5 21 -41 27 -132 22 -26 -1 -35 1 -27 6 9 6 -3 11 -37 16 -28 4 -58 9
-67 13 -13 5 -15 -5 -14 -63z"/>
<path d="M6940 182 c0 -17 46 -66 138 -145 35 -31 50 -37 87 -37 25 0 45 3 45
8 -1 15 -81 74 -95 68 -8 -3 -15 -2 -15 3 0 5 -29 28 -65 51 -35 24 -66 49
-69 57 -8 19 -26 16 -26 -5z"/>
<path d="M6500 139 c0 -5 11 -9 25 -9 14 0 25 2 25 4 0 2 -11 6 -25 8 -14 3
-25 1 -25 -3z"/>
<path d="M8022 75 c-7 -14 -12 -30 -12 -35 0 -19 65 -40 127 -40 64 0 79 11
43 30 -11 6 -20 8 -20 5 0 -3 -15 5 -33 19 -19 15 -41 26 -50 26 -9 0 -19 5
-22 10 -10 17 -21 11 -33 -15z"/>
<path d="M6525 70 c-3 -5 1 -10 9 -10 9 0 16 5 16 10 0 6 -4 10 -9 10 -6 0
-13 -4 -16 -10z"/>
</g>
</svg>
